<svg xmlns="http://www.w3.org/2000/svg" width="155.397" height="66.469" viewBox="0 0 155.397 66.469"><defs><style>.a{fill:#d99d89;}</style></defs><path class="a" d="M-91.643,233.409h-8.448V198.849h8.448c12.817,0,16.043,8,16.043,16.925,0,7.687-1.13,17.634-16.043,17.634m-8.448-65.058h5.979c12.72,0,15.094,6.415,15.094,15.242,0,7.69-3.322,14.554-14.618,14.554h-6.455Zm-9.114,65.058h-4.569V168.35h4.569Zm-51.339,0h-27.475c-19.673,0-23.327-19.848-23.327-33.518,0-13.765,4.651-31.54,23.352-31.54,13.574,0,20.193,10.092,22.166,21.034h.711V168.352h3.155l1.417,2Zm72.32-35.1c10.916-.949,18.319-5.411,18.319-14.715,0-11.96-9.3-15.946-24.207-15.946h-24.937v.7h4.568v51.633l-36.765-52.338h-14.3a2.164,2.164,0,0,1-.258.783c-.765,1.366-1.809,2.158-4.061,2.158-4.461,0-10.346-2.941-18.13-2.941-19.746,0-32.941,14.112-32.941,32.244,0,18.036,12.071,34.224,32.916,34.224h32.744v-.706h-4.565V171.329l43.486,62.079h-2.7v.706h27.392c17.676,0,26.119-7.614,26.119-18.34,0-11.2-9.3-16.708-22.686-17.468" transform="translate(220.934 -167.646)"/></svg>
