<svg xmlns="http://www.w3.org/2000/svg" width="42.278" height="42.278" viewBox="0 0 42.278 42.278"><defs><style>.a{fill:#632928;}</style></defs><g transform="translate(-496.225 -9704.056)"><path class="a" d="M523.081,9713.506a26.632,26.632,0,0,0-3.082-.165,5.365,5.365,0,0,0-4.061,1.5c-1.738,1.822-1.594,4.842-1.517,6.464.007.166.016.35.021.511h-2.735a.573.573,0,0,0-.572.573v4.016a.572.572,0,0,0,.572.572h2.709v9.531a.572.572,0,0,0,.573.572h4.022a.573.573,0,0,0,.573-.572v-9.53h2.576a.572.572,0,0,0,.568-.5l.5-4.015a.572.572,0,0,0-.568-.644h-3.054c.008-.436-.005-.849-.017-1.227-.029-.931-.054-1.736.264-2.063a1.535,1.535,0,0,1,1.088-.286H523a.573.573,0,0,0,.573-.572v-3.592A.573.573,0,0,0,523.081,9713.506Zm-.65,3.586h-1.49a2.536,2.536,0,0,0-1.91.634c-.655.677-.623,1.706-.586,2.9a17.175,17.175,0,0,1-.006,1.725.571.571,0,0,0,.571.61h3l-.357,2.871h-2.643a.572.572,0,0,0-.572.572v9.529h-2.878v-9.53a.572.572,0,0,0-.572-.572H512.28v-2.871h2.709a.572.572,0,0,0,.557-.439,5.222,5.222,0,0,0,.018-1.271c-.073-1.553-.2-4.153,1.2-5.62a4.284,4.284,0,0,1,3.233-1.141c.98,0,1.871.053,2.432.1Z"/><path class="a" d="M517.364,9704.056A21.139,21.139,0,1,0,538.5,9725.2,21.141,21.141,0,0,0,517.364,9704.056Zm0,40.869a19.729,19.729,0,1,1,19.73-19.729A19.73,19.73,0,0,1,517.364,9744.925Z"/></g></svg>