<svg xmlns="http://www.w3.org/2000/svg" width="50" height="50" viewBox="0 0 50 50"><defs><style>.a{fill:#e1a38f;}</style></defs><g transform="translate(-0.002 0.357)"><path class="a" d="M25,50A24.991,24.991,0,0,1,7.322,7.323a25,25,0,1,1,27.41,40.712A24.832,24.832,0,0,1,25,50ZM19.268,12.5A6.776,6.776,0,0,0,12.5,19.267V30.733A6.776,6.776,0,0,0,19.268,37.5H30.734A6.774,6.774,0,0,0,37.5,30.733V19.267A6.774,6.774,0,0,0,30.734,12.5ZM25,31.835A6.835,6.835,0,1,1,31.837,25,6.844,6.844,0,0,1,25,31.835Zm0-12.2A5.369,5.369,0,1,0,30.371,25,5.375,5.375,0,0,0,25,19.631Zm7,.146a2.02,2.02,0,1,1,2.019-2.019A2.023,2.023,0,0,1,32,19.777ZM32,17.2a.554.554,0,1,0,.553.556A.556.556,0,0,0,32,17.2Z" transform="translate(0.002 -0.357)"/></g></svg>
