<svg xmlns="http://www.w3.org/2000/svg" width="42.277" height="42.278" viewBox="0 0 42.277 42.278"><defs><style>.a{fill:#632928;}</style></defs><g transform="translate(-549.64 -9704.056)"><path class="a" d="M570.778,9704.056a21.139,21.139,0,1,0,21.139,21.14A21.14,21.14,0,0,0,570.778,9704.056Zm0,40.869a19.729,19.729,0,1,1,19.73-19.729A19.73,19.73,0,0,1,570.778,9744.925Z"/><path class="a" d="M577.9,9715.242H563.654a2.835,2.835,0,0,0-2.828,2.829v14.249a2.836,2.836,0,0,0,2.828,2.828H577.9a2.837,2.837,0,0,0,2.828-2.828v-14.25A2.836,2.836,0,0,0,577.9,9715.242Zm1.556,2.829v14.249a1.558,1.558,0,0,1-1.556,1.556H563.654a1.558,1.558,0,0,1-1.556-1.556v-14.249a1.558,1.558,0,0,1,1.556-1.557H577.9A1.558,1.558,0,0,1,579.459,9718.071Z"/><path class="a" d="M570.778,9719.627h0a5.568,5.568,0,1,0,5.569,5.568A5.575,5.575,0,0,0,570.778,9719.627Zm0,9.864a4.3,4.3,0,1,1,4.3-4.3A4.3,4.3,0,0,1,570.778,9729.491Z"/><path class="a" d="M576.807,9717.523a1.644,1.644,0,1,0,1.644,1.644A1.643,1.643,0,0,0,576.807,9717.523Zm0,2.191a.548.548,0,1,1,.548-.548A.548.548,0,0,1,576.807,9719.715Z"/></g></svg>