<svg xmlns="http://www.w3.org/2000/svg" width="26" height="26" viewBox="0 0 26 26"><defs><style>.a{fill:#d99d89;}</style></defs><g transform="translate(-0.001)"><g transform="translate(0.001)"><path class="a" d="M13,0A13,13,0,1,0,26,13,13,13,0,0,0,13,0Zm.04,19.133H7.408c0-4.061,3.567-4.06,4.358-5.122l.091-.484a3.881,3.881,0,0,1-1.9-3.511c0-2.093,1.362-3.791,3.041-3.791s3.041,1.7,3.041,3.791a3.894,3.894,0,0,1-1.868,3.5l.1.55c.868,1.01,4.316,1.076,4.316,5.069Z" transform="translate(-0.001)"/></g></g></svg>