<svg xmlns="http://www.w3.org/2000/svg" width="50" height="50" viewBox="0 0 50 50"><defs><style>.a{fill:#e1a38f;}</style></defs><g transform="translate(-0.001 0.358)"><path class="a" d="M25,50A24.991,24.991,0,0,1,7.322,7.323a25,25,0,1,1,27.41,40.712A24.832,24.832,0,0,1,25,50Zm0-34.375c-.084,0-8.4.007-10.476.553a3.433,3.433,0,0,0-2.361,2.379A35.649,35.649,0,0,0,11.611,25a35.535,35.535,0,0,0,.55,6.445A3.357,3.357,0,0,0,14.522,33.8c2.095.567,10.4.574,10.479.574s8.4-.007,10.476-.553a3.356,3.356,0,0,0,2.361-2.358,35.624,35.624,0,0,0,.55-6.441,33.726,33.726,0,0,0-.55-6.465A3.357,3.357,0,0,0,35.478,16.2C33.4,15.631,25.082,15.625,25,15.625ZM22.332,29.016V20.984L29.3,25l-6.969,4.016Z" transform="translate(0.001 -0.358)"/></g></svg>
