<svg xmlns="http://www.w3.org/2000/svg" width="42.278" height="42.278" viewBox="0 0 42.278 42.278"><defs><style>.a{fill:#632928;}</style></defs><g transform="translate(-602.442 -9704.056)"><path class="a" d="M635.031,9720.36h0a5.7,5.7,0,0,0-1.021-2.712,3.572,3.572,0,0,0-2.495-1.188h-.163c-3.109-.229-7.73-.266-7.771-.266s-4.664.035-7.737.343h-.12a3.477,3.477,0,0,0-2.5,1.188,5.529,5.529,0,0,0-1.056,2.735h0a38.809,38.809,0,0,0-.23,3.912v1.788a37.546,37.546,0,0,0,.22,3.81c.005.046.008.076.009.087h0a5.691,5.691,0,0,0,1.016,2.707,3.645,3.645,0,0,0,2.514,1.19l.044,0a.6.6,0,0,1,.221.024l.029.01.031,0c1.758.153,7.293.229,7.557.229.191,0,4.715,0,7.776-.342h.119a3.477,3.477,0,0,0,2.5-1.188,5.515,5.515,0,0,0,1.055-2.735h0a38.86,38.86,0,0,0,.23-3.912v-1.789a37.843,37.843,0,0,0-.22-3.81C635.035,9720.4,635.032,9720.371,635.031,9720.36Zm-1.061,3.974v1.788a36.908,36.908,0,0,1-.225,3.766,4.369,4.369,0,0,1-.732,2.028l-.007.008a2.238,2.238,0,0,1-1.637.782h-.122c-3,.225-7.477.228-7.665.228-.054,0-5.735-.076-7.391-.265l-.03,0a.875.875,0,0,1-.128-.015,1.231,1.231,0,0,0-.2-.023,2.354,2.354,0,0,1-1.718-.752,4.474,4.474,0,0,1-.692-1.97c0-.016,0-.04-.011-.107a35.721,35.721,0,0,1-.217-3.679v-1.788a36.245,36.245,0,0,1,.228-3.781,4.771,4.771,0,0,1,.694-2.016,2.3,2.3,0,0,1,1.679-.788h.123c3.035-.227,7.6-.265,7.666-.265s4.63.038,7.666.265h.16a2.236,2.236,0,0,1,1.638.783,4.545,4.545,0,0,1,.7,2.044l.007.037,0,.009A32.874,32.874,0,0,1,633.97,9724.334Z"/><path class="a" d="M628.483,9725.027l-7.236-4.229a.618.618,0,0,0-.667,0,.664.664,0,0,0-.307.563v8.256a.661.661,0,0,0,.308.563l.028.017a.76.76,0,0,0,.617,0l7.24-4.039.017-.011a.667.667,0,0,0,0-1.124Zm-1.63.556-5.291,2.943v-6.053Z"/><path class="a" d="M623.581,9704.056a21.139,21.139,0,1,0,21.139,21.14A21.14,21.14,0,0,0,623.581,9704.056Zm0,40.869A19.729,19.729,0,1,1,643.31,9725.2,19.731,19.731,0,0,1,623.581,9744.925Z"/></g></svg>