<?xml version="1.0" standalone="no"?>
<!DOCTYPE svg PUBLIC "-//W3C//DTD SVG 1.1//EN" "http://www.w3.org/Graphics/SVG/1.1/DTD/svg11.dtd" >
<svg xmlns="http://www.w3.org/2000/svg" xmlns:xlink="http://www.w3.org/1999/xlink" version="1.1">
<metadata>
Created by FontForge 20200427 at Sat Dec  6 06:41:55 2014
 By www
Copyright (c) 2012 by Aviation Partners. All rights reserved.
</metadata>
<defs>
<font id="BeaulieuW01-Regular" horiz-adv-x="497" >
  <font-face 
    font-family="BeaulieuW01-Regular"
    font-weight="400"
    font-stretch="normal"
    units-per-em="1000"
    panose-1="2 0 0 0 0 0 0 0 0 0"
    ascent="800"
    descent="-200"
    x-height="487"
    cap-height="693"
    bbox="-138 -236 1088 928"
    underline-thickness="50"
    underline-position="-175"
    unicode-range="U+0020-2122"
  />
<missing-glyph horiz-adv-x="502" 
d="M455 693v-693h-408v693h408zM239 33q22 0 38.5 16.5t16.5 39.5t-16.5 39t-39.5 16t-38.5 -16t-15.5 -39t16 -39.5t39 -16.5zM241 238q0 48 20.5 81.5t45.5 62.5t46 63.5t21 85.5q0 28 -10.5 52t-28.5 41t-41.5 26.5t-49.5 9.5q-68 0 -106 -39l11 -94q20 30 44.5 45.5
t44.5 15.5q23 0 40 -20.5t17 -47.5q0 -29 -11 -47.5t-26 -37.5q-11 -14 -22 -29.5t-20 -36.5t-15 -48.5t-6 -65.5q0 -11 1.5 -27.5t6.5 -32.5l39 12q-1 8 -1 15v16z" />
    <glyph glyph-name=".notdef" horiz-adv-x="502" 
d="M455 693v-693h-408v693h408zM239 33q22 0 38.5 16.5t16.5 39.5t-16.5 39t-39.5 16t-38.5 -16t-15.5 -39t16 -39.5t39 -16.5zM241 238q0 48 20.5 81.5t45.5 62.5t46 63.5t21 85.5q0 28 -10.5 52t-28.5 41t-41.5 26.5t-49.5 9.5q-68 0 -106 -39l11 -94q20 30 44.5 45.5
t44.5 15.5q23 0 40 -20.5t17 -47.5q0 -29 -11 -47.5t-26 -37.5q-11 -14 -22 -29.5t-20 -36.5t-15 -48.5t-6 -65.5q0 -11 1.5 -27.5t6.5 -32.5l39 12q-1 8 -1 15v16z" />
    <glyph glyph-name=".null" horiz-adv-x="0" 
 />
    <glyph glyph-name="nonmarkingreturn" horiz-adv-x="333" 
 />
    <glyph glyph-name="space" unicode=" " horiz-adv-x="280" 
 />
    <glyph glyph-name="exclam" unicode="!" horiz-adv-x="294" 
d="M146 110q25 0 44.5 -18t19.5 -43t-19.5 -43t-43.5 -18q-26 0 -44.5 18t-18.5 43t18 43t44 18zM101 625q0 10 0.5 25.5t1 30.5t1 26.5t0.5 14.5h86q0 -4 1 -15.5t1.5 -26.5l1 -30t0.5 -25v-71q0 -15 -2 -45t-5 -66.5t-6.5 -77t-7 -75t-6 -60.5t-3.5 -35h-34q-9 85 -15 157
q-3 31 -5.5 62t-4.5 58.5t-3 49t-1 32.5v71z" />
    <glyph glyph-name="quotedbl" unicode="&#x22;" horiz-adv-x="354" 
d="M86 474h-38v248l94 12zM268 474h-37v248l94 12z" />
    <glyph glyph-name="numbersign" unicode="#" horiz-adv-x="518" 
d="M418 429l-29 -171h100v-58h-109l-35 -206l-56 9l32 197h-172l-34 -206l-57 9l33 197h-62v58h72l28 171h-100v58h110l34 207l57 -9l-33 -198h173l34 207l57 -9l-34 -198h62v-58h-71zM360 429h-172l-29 -171h172z" />
    <glyph glyph-name="dollar" unicode="$" horiz-adv-x="531" 
d="M340 373q75 -42 109.5 -89.5t34.5 -107.5q0 -38 -14.5 -71t-40 -57.5t-61.5 -40t-79 -18.5v-62h-45v62q-29 1 -53.5 4.5t-47 9t-43.5 13t-43 16.5l-11 110h12q29 -31 75.5 -59t110.5 -33v257l-37 21q-75 42 -115 86t-40 107q0 36 13.5 69t39 58t60.5 40t79 17v59h45v-60
q46 -4 84 -15.5t78 -31.5l11 -109h-12q-36 40 -71.5 64.5t-89.5 29.5v-240zM289 50q48 7 75.5 35.5t27.5 66.5q0 32 -29 63t-74 66v-231zM144 548q0 -18 5.5 -33.5t17.5 -29.5t31 -27.5t46 -29.5v215q-47 -4 -73.5 -31.5t-26.5 -63.5z" />
    <glyph glyph-name="percent" unicode="%" horiz-adv-x="766" 
d="M315 492q0 -46 -11 -84t-31 -65t-47 -42t-59 -15t-58.5 15t-46.5 42t-31 65t-11 84q0 48 11.5 86.5t31.5 65.5t46.5 41.5t57.5 14.5t58 -14.5t47 -41.5t31.5 -65.5t11.5 -86.5zM235 488q0 33 -3.5 64t-11 54.5t-21 37.5t-32.5 14t-32 -14t-20.5 -37.5t-11 -54.5t-3.5 -64
q0 -71 16 -116.5t51 -45.5t51.5 45t16.5 117zM627 693l-444 -693h-42l444 693h42zM736 199q0 -46 -11 -84t-31 -65t-47 -42t-59 -15t-58.5 15t-46.5 42t-31 65t-11 84q0 48 11.5 86.5t31.5 65.5t46.5 41.5t57.5 14.5t58 -14.5t47 -41.5t31.5 -65.5t11.5 -86.5zM656 195
q0 33 -3.5 64t-11 54.5t-21 37.5t-32.5 14t-32 -14t-20.5 -37.5t-11 -54.5t-3.5 -64q0 -71 16 -116.5t51 -45.5t51.5 45t16.5 117z" />
    <glyph glyph-name="ampersand" unicode="&#x26;" horiz-adv-x="701" 
d="M669 77q8 -7 12 -13t12 -13q-23 -33 -51 -48t-58 -15q-17 0 -33 3t-32.5 12t-35 25t-40.5 41q-42 -37 -92.5 -59t-106.5 -22q-45 0 -81 13t-60.5 34.5t-37.5 50t-13 59.5q0 27 10 56.5t30 58t49.5 55.5t68.5 49q-34 51 -47 90t-13 74q0 26 13 52.5t36 47.5t54.5 34.5
t69.5 13.5q37 0 66 -11t48.5 -29.5t29.5 -43t10 -51.5q0 -25 -8 -46t-27 -41t-49 -42t-73 -49q15 -21 34 -44.5t38.5 -48t38.5 -47.5t35 -42q23 33 36.5 69t13.5 69q0 17 -1 28t-3 28l83 13v-13q0 -60 -24 -123t-66 -118q26 -33 51.5 -55.5t54.5 -22.5q21 0 35.5 6.5
t22.5 14.5zM237 543q-2 -29 10 -59t41 -75q34 20 55 35.5t33 29.5t16.5 28t4.5 32q0 36 -19 62t-55 26q-20 0 -35 -7t-26 -18.5t-17.5 -25.5t-7.5 -28zM264 59q38 0 73.5 15t66.5 41q-19 23 -40 49t-42.5 53t-42 52.5t-36.5 47.5q-48 -33 -72.5 -71t-24.5 -75q0 -23 8.5 -43
t24.5 -35.5t37.5 -24.5t47.5 -9z" />
    <glyph glyph-name="quotesingle" unicode="'" horiz-adv-x="160" 
d="M86 474h-38v248l94 12z" />
    <glyph glyph-name="parenleft" unicode="(" horiz-adv-x="312" 
d="M37 264q0 80 16.5 147t47.5 124t76 106t102 93l24 -9q-47 -47 -78.5 -95.5t-51 -103t-28 -119t-8.5 -143.5q0 -80 8.5 -143.5t28 -118t51 -102.5t78.5 -96l-24 -9q-57 44 -102 92.5t-76 105.5t-47.5 124t-16.5 147z" />
    <glyph glyph-name="parenright" unicode=")" horiz-adv-x="312" 
d="M33 734q57 -44 102 -93t76 -106t47.5 -124t16.5 -147t-16.5 -147t-47.5 -124t-76 -105.5t-102 -92.5q-5 2 -11.5 4.5t-11.5 4.5q46 48 78 96t51.5 102.5t28 118t8.5 143.5t-8.5 144t-28 118.5t-51.5 102.5t-78 96z" />
    <glyph glyph-name="asterisk" unicode="*" horiz-adv-x="463" 
d="M380 469q16 -9 29 -18t21 -15l-27 -46q-11 4 -25.5 11.5t-26.5 14.5q-14 8 -30.5 21t-32.5 27t-30.5 27.5t-23.5 22.5q3 -14 8 -34t9.5 -41.5t7.5 -41t3 -32.5q0 -15 -1.5 -31.5t-3.5 -27.5h-52q-2 11 -3 28t-1 31q0 13 3 32.5t7.5 41t9.5 41.5t8 34q-9 -9 -23.5 -22.5
t-30.5 -27.5t-32.5 -27t-29.5 -21q-12 -7 -27 -14.5t-26 -11.5q-6 11 -13 23t-14 23q8 6 21 15t29 18q12 7 31.5 14.5t39.5 14.5t39.5 12.5t31.5 9.5q-12 4 -31.5 9.5t-39.5 12.5t-39.5 14.5t-31.5 14.5q-16 9 -29 18t-21 15q7 11 13.5 22t13.5 23q10 -4 24 -10.5t28 -15.5
q13 -8 29.5 -20.5t33 -26.5t31 -27.5t23.5 -22.5q-3 13 -8 33.5t-9.5 42t-7.5 41t-3 32.5q0 14 1 31t3 28h52q2 -11 3.5 -27.5t1.5 -31.5q0 -13 -3 -32.5t-7.5 -41t-9.5 -42t-8 -33.5q10 9 24.5 23t30.5 28t32 26.5t29 19.5q14 8 28 15t25 11l27 -45q-8 -6 -21 -15t-29 -18
q-12 -7 -31.5 -14.5t-39.5 -14.5t-39.5 -12.5t-31.5 -9.5q12 -4 31.5 -9.5t39.5 -12.5t39.5 -14.5t31.5 -14.5z" />
    <glyph glyph-name="plus" unicode="+" horiz-adv-x="518" 
d="M489 315h-201v-201h-58v201h-201v58h201v201h58v-201h201v-58z" />
    <glyph glyph-name="comma" unicode="," horiz-adv-x="228" 
d="M47 -139q35 20 56.5 44t21.5 44q0 17 -17 34t-45 27q-6 4 -11 10.5t-5 14.5q0 11 5 24t13 24t18 18t21 7q31 0 54 -28t23 -73q0 -54 -34 -97t-100 -65v16z" />
    <glyph glyph-name="hyphen" unicode="-" horiz-adv-x="316" 
d="M37 251h242v-62h-242v62z" />
    <glyph glyph-name="period" unicode="." horiz-adv-x="217" 
d="M107 110q25 0 44 -18t19 -43t-19 -43t-43 -18q-26 0 -43.5 18t-17.5 43t17.5 43t42.5 18z" />
    <glyph glyph-name="slash" unicode="/" horiz-adv-x="348" 
d="M314 734q-57 -183 -117 -374t-115 -372h-48l232 746h48z" />
    <glyph glyph-name="zero" unicode="0" 
d="M248 676q45 0 85 -24.5t70.5 -69.5t48 -109t17.5 -143q0 -75 -17 -138t-47 -108t-70.5 -70.5t-86.5 -25.5t-86 25.5t-70 70.5t-47 108t-17 138q0 79 17.5 143t47.5 109t70 69.5t85 24.5zM248 42q31 0 54.5 21.5t39 59t23 89t7.5 112.5q0 57 -6.5 110.5t-21 94.5t-38.5 66
t-58 25t-57.5 -25t-37.5 -66t-20.5 -94.5t-6.5 -110.5q0 -61 7.5 -112.5t22.5 -89t38 -59t54 -21.5z" />
    <glyph glyph-name="one" unicode="1" 
d="M296 96q0 -22 2.5 -50.5t7.5 -45.5h-100v570q-8 -5 -16.5 -10t-21 -12.5l-30 -18t-43.5 -26.5v59l185 114h16v-580z" />
    <glyph glyph-name="two" unicode="2" 
d="M365 78q19 0 47.5 3t48.5 8l-15 -89h-419v11l38 40q75 79 125 139t81 108t44 87t13 74q0 31 -10 56.5t-28 44t-42 29t-51 10.5q-45 0 -75 -19t-63 -58l-8 77q26 31 70.5 54t99.5 23q43 0 79 -15t62 -40.5t40.5 -59.5t14.5 -72q0 -89 -74 -196q-15 -22 -41 -53
t-53.5 -62.5t-52.5 -58.5t-40 -41h209z" />
    <glyph glyph-name="three" unicode="3" 
d="M420 201q0 -48 -18 -87t-50 -67t-76 -43.5t-96 -15.5q-42 0 -79.5 9t-69.5 27l20 49q25 -10 58 -17t79 -7q27 0 53 10t47 27.5t33.5 41t12.5 49.5q0 29 -11 54.5t-32.5 44t-53.5 29.5t-74 11v47q75 7 111 42.5t36 89.5q0 49 -31 76.5t-82 27.5q-45 0 -75 -19t-63 -58
l-8 77q26 31 70.5 54t99.5 23q38 0 70.5 -12t56 -33t36.5 -49.5t13 -61.5q0 -42 -21 -76.5t-67 -66.5v-11q61 -29 86 -74t25 -91z" />
    <glyph glyph-name="four" unicode="4" 
d="M469 270v-70h-83v-200h-88v200h-290v48l330 428h48v-406h83zM298 270v268l-205 -268h205z" />
    <glyph glyph-name="five" unicode="5" 
d="M145 664h273l-12 -79h-207l-27 -136q61 -7 109 -26.5t82 -49.5t52 -69.5t18 -86.5q0 -57 -21 -99.5t-56 -71.5t-79.5 -43.5t-91.5 -14.5q-42 0 -79.5 9t-69.5 27l20 49q24 -10 57.5 -17t79.5 -7q31 0 59 11.5t50 31.5t35 46.5t13 56.5q0 88 -70 131.5t-195 43.5z" />
    <glyph glyph-name="six" unicode="6" 
d="M248 349q-28 0 -50 -11t-37 -29t-23 -41.5t-8 -48.5q0 -38 10 -70.5t27.5 -56.5t41.5 -38t52 -14q48 0 82 38t34 105q0 34 -8.5 64.5t-25 53t-40.5 35.5t-55 13zM141 348q31 29 69.5 43t74.5 14q38 0 71.5 -15t58 -41.5t38.5 -63t14 -78.5q0 -45 -17 -84.5t-46.5 -69.5
t-69 -47.5t-83.5 -17.5q-52 0 -91.5 22t-66.5 58.5t-41 83t-14 95.5q0 79 27 151t75 130t113 97t140 51l19 -43q-47 -11 -92.5 -35.5t-83 -61t-64 -83.5t-36.5 -102z" />
    <glyph glyph-name="seven" unicode="7" 
d="M473 664q-1 -4 -3.5 -10t-10.5 -27t-24.5 -62.5t-46 -115.5t-74 -186.5t-109.5 -275.5q-11 3 -26 6.5t-44 9.5l230 583h-212q-19 0 -47 -3t-47 -8l15 89h399z" />
    <glyph glyph-name="eight" unicode="8" 
d="M250 623q-51 0 -81 -29t-30 -71q0 -26 10.5 -47t27 -38t38 -30.5t42.5 -24.5q55 26 79.5 60t24.5 69q0 52 -30.5 81.5t-80.5 29.5zM372 144q0 54 -37.5 91t-105.5 72q-47 -20 -74 -57.5t-27 -83.5q0 -56 34.5 -91t89.5 -35q54 0 87 29.5t33 74.5zM442 522
q0 -42 -31.5 -88.5t-91.5 -82.5q57 -29 96.5 -75.5t39.5 -109.5q0 -37 -15 -69.5t-42.5 -56.5t-65.5 -38t-84 -14q-44 0 -81.5 14t-65 38t-43 55.5t-15.5 66.5q0 48 33 94.5t92 81.5q-57 30 -85.5 76t-28.5 91q0 35 14.5 66t41 54.5t62.5 37t78 13.5q40 0 75 -12.5t61 -33.5
t41 -49t15 -59z" />
    <glyph glyph-name="nine" unicode="9" 
d="M253 315q28 0 50 10.5t37 28.5t23 41.5t8 49.5q0 38 -10 70.5t-27.5 56.5t-41.5 38t-52 14q-48 0 -82 -38t-34 -105q0 -35 8.5 -65t25 -52.5t40.5 -35.5t55 -13zM360 316q-31 -29 -69.5 -43t-74.5 -14q-38 0 -71.5 15t-58 41.5t-38.5 63t-14 78.5q0 45 17 84.5t46.5 69.5
t69 47.5t83.5 17.5q52 0 91.5 -22t66.5 -58.5t41 -83t14 -95.5q0 -79 -27 -151.5t-75 -130t-113 -96.5t-140 -51l-19 43q47 11 92.5 35.5t83 61t64 83.5t36.5 102z" />
    <glyph glyph-name="colon" unicode=":" horiz-adv-x="237" 
d="M121 462q25 0 44 -18t19 -43t-19 -43t-43 -18q-26 0 -43.5 18t-17.5 43t17.5 43t42.5 18zM121 110q25 0 44 -18t19 -43t-19 -43t-43 -18q-26 0 -43.5 18t-17.5 43t17.5 43t42.5 18z" />
    <glyph glyph-name="semicolon" unicode=";" horiz-adv-x="241" 
d="M55 -139q35 20 56.5 44t21.5 44q0 17 -17 34t-45 27q-6 4 -11 10.5t-5 14.5q0 11 5 24t13 24t18 18t21 7q31 0 54 -28t23 -73q0 -54 -34 -97t-100 -65v16zM121 462q25 0 44 -18t19 -43t-19 -43t-43 -18q-26 0 -43.5 18t-17.5 43t17.5 43t42.5 18z" />
    <glyph glyph-name="less" unicode="&#x3c;" horiz-adv-x="518" 
d="M489 537l-420 -193l420 -193v-64l-460 212v90l460 211v-63z" />
    <glyph glyph-name="equal" unicode="=" horiz-adv-x="518" 
d="M489 459v-57h-460v57h460zM489 286v-57h-460v57h460z" />
    <glyph glyph-name="greater" unicode="&#x3e;" horiz-adv-x="518" 
d="M29 600l460 -211v-90l-460 -212v64l420 193l-420 193v63z" />
    <glyph glyph-name="question" unicode="?" horiz-adv-x="383" 
d="M177 110q26 0 45.5 -18t19.5 -43t-19.5 -43t-44.5 -18q-26 0 -44 18t-18 43t18 43t43 18zM255 567q0 19 -6.5 35.5t-17 28.5t-25 19t-30.5 7q-25 0 -54 -15t-51 -44l-12 92q22 21 54.5 32.5t71.5 11.5q31 0 59 -11.5t49.5 -31.5t34.5 -48t13 -61q0 -29 -7.5 -53.5
t-19.5 -46.5t-26.5 -41t-29.5 -36q-15 -18 -30 -37.5t-27 -41.5t-19.5 -47.5t-7.5 -56.5v-32q-9 -2 -18.5 -5.5t-18.5 -5.5q-3 16 -4.5 34t-1.5 31q0 45 7 78.5t18 58t24.5 43t26.5 35.5q20 25 34 49t14 59z" />
    <glyph glyph-name="at" unicode="@" horiz-adv-x="961" 
d="M488 -175q82 0 163 26.5t156 77.5l35 -39q-88 -60 -183.5 -92.5t-192.5 -32.5q-89 0 -164.5 31.5t-131 86.5t-87 130t-31.5 162q0 69 20 135t56 125t86 108.5t109.5 85t126.5 55.5t137 20q69 0 129 -24t105 -66.5t70.5 -101t25.5 -127.5q0 -80 -25.5 -152t-66 -126.5
t-91 -86.5t-101.5 -32q-18 0 -31 9.5t-21.5 24.5t-12.5 33.5t-4 35.5q0 5 0.5 12t1.5 13h-5q-35 -59 -81 -93.5t-91 -34.5q-63 0 -91.5 42t-28.5 110q0 75 28 140.5t73.5 114t102.5 76.5t115 28q32 0 66 -4t57 -10q-14 -62 -28.5 -136.5t-27.5 -145.5q-4 -23 -6 -46.5
t-2 -43.5q0 -26 5.5 -41.5t17.5 -15.5q39 0 71 27t55 71t36 100t13 115q0 62 -23 112.5t-61.5 86.5t-89.5 56t-107 20q-90 0 -170 -39t-140 -102.5t-94.5 -144.5t-34.5 -165q0 -81 28.5 -149t77.5 -116.5t115 -75.5t142 -27zM589 272q2 11 6 34.5t8 49.5t7 48.5t4 32.5
q-12 2 -24 2.5t-26 0.5q-46 0 -83 -25t-63.5 -64t-41 -86.5t-14.5 -92.5q0 -54 20.5 -81t55.5 -27q17 0 39 16.5t43.5 45t40 66t28.5 80.5z" />
    <glyph glyph-name="A" unicode="A" horiz-adv-x="681" 
d="M128 92q-9 -20 -17.5 -47.5t-10.5 -44.5h-82l304 705h20l269 -606q4 -9 10.5 -22l13.5 -27t14.5 -27t13.5 -23h-115q-7 23 -15 43.5t-22 55.5q-9 17 -15 31t-10 23q-4 11 -8 19h-316zM188 231h263l-135 307z" />
    <glyph glyph-name="B" unicode="B" horiz-adv-x="645" 
d="M421 357q40 -5 72 -21t54 -38.5t33.5 -51t11.5 -58.5q0 -39 -14 -73.5t-45 -60t-80.5 -40t-121.5 -14.5h-234v605q0 32 -4 53.5t-8 34.5h205q40 0 86.5 -6t86.5 -24t66 -52t26 -90q0 -26 -10 -51t-28 -46.5t-42.5 -37.5t-53.5 -23v-6zM193 378h86q46 0 79.5 11t54.5 30
t31 44.5t10 55.5q0 60 -43.5 88.5t-137.5 28.5q-20 0 -41.5 -1.5t-38.5 -3.5v-253zM193 325v-261q26 -3 54.5 -5t57.5 -2q53 0 88.5 10.5t57 28t30.5 41.5t9 51q0 28 -11.5 53.5t-36.5 44.5t-64.5 30t-96.5 10z" />
    <glyph glyph-name="C" unicode="C" horiz-adv-x="704" 
d="M420 56q66 0 126.5 23t111.5 65l29 -43q-56 -52 -124 -82.5t-156 -30.5q-87 0 -154.5 29.5t-114 78.5t-71 112.5t-24.5 131.5q0 85 31 153t83 115t118.5 72t138.5 25q43 0 80 -5.5t67.5 -13t53.5 -15.5t38 -14l11 -106h-11q-44 39 -101.5 66.5t-132.5 27.5
q-62 0 -112 -22t-85 -62.5t-54 -96.5t-19 -125q0 -66 20.5 -118.5t57 -89t86 -56t107.5 -19.5z" />
    <glyph glyph-name="D" unicode="D" horiz-adv-x="767" 
d="M323 693q86 0 159.5 -21t127.5 -64t84.5 -108t30.5 -153q0 -84 -32 -149t-89.5 -109t-138 -66.5t-177.5 -22.5h-191v605q0 32 -3.5 53.5t-8.5 34.5h238zM317 57q75 0 131.5 21.5t94.5 60t57 92t19 118.5q0 68 -21.5 121t-61 89.5t-96 55.5t-126.5 19q-29 0 -60 -2t-61 -5
v-562q32 -4 63.5 -6t60.5 -2z" />
    <glyph glyph-name="E" unicode="E" horiz-adv-x="576" 
d="M444 60q20 0 47 2.5t44 7.5l-7 -70h-431v605q0 29 -3.5 51.5t-8.5 36.5h420l7 -70q-16 5 -43 7.5t-47 2.5h-229v-248h191q10 0 22.5 0.5t25.5 2t24.5 3.5t19.5 5v-80q-8 2 -19.5 4t-24.5 3.5t-25.5 2t-22.5 0.5h-191v-266h251v0z" />
    <glyph glyph-name="F" unicode="F" horiz-adv-x="536" 
d="M385 385q10 0 22.5 0.5t25.5 2t24.5 3.5t19.5 5v-80q-8 2 -19.5 4t-24.5 3.5t-25.5 2t-22.5 0.5h-192v-235q0 -10 0.5 -22.5t2 -25t3.5 -24t4 -19.5h-106v605q0 32 -3.5 53.5t-7.5 34.5h420l7 -70q-16 5 -43 7.5t-47 2.5h-230v-248h192z" />
    <glyph glyph-name="G" unicode="G" horiz-adv-x="730" 
d="M581 224q0 30 -2.5 52.5t-7.5 34.5h111q-2 -9 -3.5 -24.5t-1.5 -48.5v-210q-54 -21 -108.5 -30.5t-111.5 -9.5q-97 0 -173.5 30t-130 80.5t-82 117.5t-28.5 141q0 85 31 150.5t83 109t118.5 66t138.5 22.5q43 0 80 -5.5t67 -13t53 -15.5t38 -14l11 -106h-11
q-46 41 -105 67.5t-135 26.5q-60 0 -109 -21t-83 -59t-52.5 -92.5t-18.5 -121.5q0 -64 24 -120t65.5 -98t96.5 -66.5t117 -24.5q30 0 64 5.5t65 18.5v158v0z" />
    <glyph glyph-name="H" unicode="H" horiz-adv-x="756" 
d="M563 0v316h-370v-225q0 -10 1 -22.5t2.5 -25t3.5 -24t4 -19.5h-107v605q0 32 -3.5 53.5t-8.5 34.5h113q-2 -9 -3.5 -24.5t-1.5 -48.5v-244h370v229q0 32 -3 53.5t-6 34.5h110q-2 -9 -3.5 -24.5t-1.5 -48.5v-529q0 -10 0.5 -22.5t2 -25t3.5 -24t5 -19.5h-107z" />
    <glyph glyph-name="I" unicode="I" horiz-adv-x="290" 
d="M97 0v605q0 29 -3.5 51.5t-8.5 36.5h112q-2 -9 -3 -25t-1 -48v-529q0 -10 0.5 -22.5t2 -25t3 -24t3.5 -19.5h-105z" />
    <glyph glyph-name="J" unicode="J" horiz-adv-x="290" 
d="M199 693q-2 -11 -4 -25t-2 -48v-529q0 -64 -16 -108t-43 -71.5t-62.5 -40t-73.5 -12.5l-6 42q21 4 40.5 13t33.5 26t22.5 44t8.5 66v555q0 32 -2.5 53.5t-7.5 34.5h112z" />
    <glyph glyph-name="K" unicode="K" horiz-adv-x="696" 
d="M591 89q10 -10 23 -22t26.5 -24.5t26.5 -23.5t24 -19h-150q-7 9 -16 20q-8 9 -18 20.5t-21 22.5l-249 247l-44 -45v-174q0 -10 1 -22.5t2.5 -25t3.5 -24t4 -19.5h-107v605q0 32 -3.5 53.5t-8.5 34.5h113q-2 -9 -3.5 -24.5t-1.5 -48.5v-267l248 250q32 32 51 55t27 35h104
q-12 -9 -27.5 -24t-47.5 -47l-246 -247l289 -286v0z" />
    <glyph glyph-name="L" unicode="L" horiz-adv-x="550" 
d="M445 60q20 0 46.5 2.5t43.5 7.5l-7 -70h-431v605q0 29 -3.5 51.5t-8.5 36.5h112q-2 -9 -3 -25t-1 -48v-560h252z" />
    <glyph glyph-name="M" unicode="M" horiz-adv-x="872" 
d="M680 0v575l-247 -437h-20l-251 437v-484q0 -10 1 -22.5t2.5 -25t3.5 -24t5 -19.5h-79v605q0 32 -3.5 53.5t-7.5 34.5h113l249 -417l236 417h94v-602q0 -10 0.5 -22.5t2 -25t3.5 -24t5 -19.5h-107z" />
    <glyph glyph-name="N" unicode="N" horiz-adv-x="791" 
d="M700 693q-2 -9 -4 -26t-2 -47v-632h-20l-510 574v-471q0 -10 0.5 -22.5t2 -25t3.5 -24t4 -19.5h-77v605q0 29 -3.5 51.5t-8.5 36.5h79l463 -515v427q0 30 -3 52.5t-8 35.5h84z" />
    <glyph glyph-name="O" unicode="O" horiz-adv-x="808" 
d="M408 705q76 0 141.5 -27.5t113.5 -75.5t75.5 -113.5t27.5 -142.5q0 -75 -28 -140.5t-77 -113.5t-116 -76t-145 -28q-77 0 -142 27.5t-113 75.5t-75 113.5t-27 142.5q0 75 27.5 140.5t76 114t115.5 76t146 27.5zM403 49q59 0 106.5 21t81 60t51.5 93.5t18 121.5t-18 122
t-51.5 94.5t-81 61.5t-105.5 22q-59 0 -106.5 -21t-80.5 -60t-50.5 -94t-17.5 -122q0 -66 18 -121t51 -94.5t80 -61.5t105 -22z" />
    <glyph glyph-name="P" unicode="P" horiz-adv-x="558" 
d="M223 340q5 0 11 -1t11 -1q101 0 142.5 38t41.5 104q0 75 -41.5 115t-138.5 40h-29.5t-26.5 -2v-542q0 -10 0.5 -22.5t2 -25t3 -24t3.5 -19.5h-105v605q0 29 -3.5 51.5t-8.5 36.5h170q52 0 101.5 -10t88.5 -33.5t62.5 -61t23.5 -92.5q0 -98 -61 -151.5t-182 -53.5
q-16 0 -33.5 1t-35.5 3z" />
    <glyph glyph-name="Q" unicode="Q" horiz-adv-x="808" 
d="M766 346q0 -65 -21 -122.5t-58.5 -103.5t-89.5 -78.5t-114 -45.5q34 -27 64.5 -49.5t62 -38.5t68 -25t83.5 -9q-9 -14 -17 -22t-17 -22q-59 0 -104.5 8.5t-87.5 27t-86 49.5t-101 76q-66 9 -122 39.5t-96.5 77.5t-63.5 108t-23 131q0 75 27.5 140.5t76 114t115.5 76
t146 27.5q76 0 141.5 -27.5t113.5 -75.5t75.5 -113.5t27.5 -142.5zM149 348q0 -66 18 -121t51 -94.5t80 -61.5t105 -22q59 0 106.5 21t81 60t51.5 93.5t18 121.5t-18 122t-51.5 94.5t-81 61.5t-105.5 22q-59 0 -106.5 -21t-80.5 -60t-50.5 -94t-17.5 -122z" />
    <glyph glyph-name="R" unicode="R" horiz-adv-x="606" 
d="M597 0h-122q-9 17 -30 49.5t-46 68.5q-33 45 -66 87q-14 18 -29 36.5t-29.5 36.5t-28 33.5t-24.5 26.5v24q107 5 151.5 43.5t44.5 100.5q0 56 -45 92.5t-124 36.5h-29.5t-26.5 -2v-542q0 -10 0.5 -22.5t2 -25t3 -24t3.5 -19.5h-105v605q0 29 -3.5 51.5t-8.5 36.5h170
q43 0 90 -8t85.5 -28.5t63.5 -56t25 -91.5q0 -75 -48.5 -120t-125.5 -64z" />
    <glyph glyph-name="S" unicode="S" horiz-adv-x="531" 
d="M340 373q75 -42 109.5 -89.5t34.5 -107.5q0 -40 -15.5 -74t-44 -59.5t-68 -40t-86.5 -14.5q-35 0 -63.5 3t-53.5 9t-48 14t-48 18l-11 110h12q16 -17 36.5 -33.5t46.5 -29.5t57 -21.5t67 -8.5q29 0 52.5 8t40 22.5t25.5 33t9 39.5q0 16 -4.5 31.5t-15.5 31.5t-31 32
t-51 34l-83 47q-75 42 -115 86t-40 107q0 37 14.5 70.5t40.5 59t63.5 40t82.5 14.5q60 0 105.5 -12.5t92.5 -35.5l11 -109h-12q-20 22 -39.5 40t-42 30.5t-49 19t-61.5 6.5q-53 0 -83.5 -28.5t-30.5 -67.5t27 -66.5t89 -62.5l80 -46v0z" />
    <glyph glyph-name="T" unicode="T" horiz-adv-x="595" 
d="M346 633v-542q0 -10 0.5 -22.5t2 -25t3.5 -24t4 -19.5h-106v633h-151q-20 0 -46.5 -2.5t-42.5 -7.5l7 70h561l7 -70q-16 5 -43 7.5t-47 2.5h-149z" />
    <glyph glyph-name="U" unicode="U" horiz-adv-x="769" 
d="M672 273q0 -59 -17 -111t-52 -90.5t-89 -61t-127 -22.5q-86 0 -142 21.5t-89 62t-46 99.5t-13 134v300q0 32 -3.5 53.5t-7.5 34.5h111q-2 -9 -3 -25t-1 -48v-313q0 -52 7.5 -99t29 -82.5t60 -56.5t99.5 -21t102.5 19t67 53t36 81.5t10.5 104.5v299q0 32 -3.5 53.5
t-7.5 34.5h82q-2 -9 -3 -25t-1 -48v-347v0z" />
    <glyph glyph-name="V" unicode="V" horiz-adv-x="684" 
d="M665 693l-321 -705h-20l-245 615q-8 20 -22.5 46.5t-25.5 43.5h117l210 -528q48 105 101 217.5t98 218.5q8 20 16.5 47.5t10.5 44.5h81z" />
    <glyph glyph-name="W" unicode="W" horiz-adv-x="1029" 
d="M1010 693l-274 -705h-20l-200 515l-213 -515h-20l-209 615q-3 10 -8.5 22t-11.5 24t-12 23.5t-11 20.5h117l173 -507l200 507h28l193 -502l163 410q4 10 8 22.5t7 25.5t5.5 24.5t2.5 19.5h82z" />
    <glyph glyph-name="X" unicode="X" horiz-adv-x="730" 
d="M575 0l-221 298l-170 -205q-9 -11 -18.5 -24t-18.5 -25.5t-16.5 -24.5t-11.5 -19h-100l296 350l-195 257q-20 26 -40.5 49t-34.5 37h136q10 -16 20.5 -32.5t30.5 -42.5l144 -196l149 181q27 32 42 55t21 35h103q-9 -9 -22.5 -24t-40.5 -47l-213 -252l214 -281l18 -22.5
t20.5 -24.5t20.5 -23t18 -19h-131z" />
    <glyph glyph-name="Y" unicode="Y" horiz-adv-x="665" 
d="M389 91q0 -10 0.5 -22.5t2 -25t3.5 -24t4 -19.5h-106v326l-200 278q-14 20 -35.5 46.5t-38.5 42.5h123l215 -300l146 207q7 10 15.5 23t16 26t13.5 24.5t9 19.5h89l-257 -362v-240z" />
    <glyph glyph-name="Z" unicode="Z" horiz-adv-x="628" 
d="M519 60q21 0 47.5 2.5t42.5 7.5l-7 -70h-583v28l441 605h-319q-20 0 -46.5 -2.5t-42.5 -7.5l7 70h539v-26l-440 -607h361z" />
    <glyph glyph-name="bracketleft" unicode="[" horiz-adv-x="327" 
d="M304 -224h-222v946h222v-54h-131v-839h131v-53z" />
    <glyph glyph-name="backslash" unicode="\" horiz-adv-x="347" 
d="M83 734l230 -746h-49q-57 186 -115.5 373t-115.5 373h50z" />
    <glyph glyph-name="bracketright" unicode="]" horiz-adv-x="327" 
d="M22 -171h132v839h-132v54h223v-946h-223v53z" />
    <glyph glyph-name="asciicircum" unicode="^" horiz-adv-x="457" 
d="M254 683l199 -385h-83q-8 15 -17.5 35.5t-25.5 53.5t-39.5 82t-59.5 121l-139 -292h-85l200 385h50z" />
    <glyph glyph-name="underscore" unicode="_" horiz-adv-x="515" 
d="M529 -207h-542v47h542v-47z" />
    <glyph glyph-name="grave" unicode="`" horiz-adv-x="327" 
d="M0 699h115l63 -164h-43z" />
    <glyph glyph-name="a" unicode="a" horiz-adv-x="471" 
d="M123 129q-1 -35 19 -54.5t52 -19.5q52 0 108 50q-2 12 -3 34t-1 44l2 83q-47 -18 -80 -33t-54.5 -31t-32 -33.5t-10.5 -39.5zM322 0q-4 9 -7.5 25t-7.5 36q-42 -38 -78 -55.5t-75 -17.5q-57 0 -91.5 33t-33.5 87q1 58 46 94.5t127 68.5q23 9 47.5 17.5t51.5 18.5v22
q0 30 -7 50t-20 32.5t-31.5 17.5t-39.5 5q-34 0 -71 -9t-73 -29v54q35 23 76.5 36t87.5 13q41 0 75 -10t54 -27q17 -14 28.5 -46t12.5 -87l-3 -173q0 -21 2.5 -43.5t6 -43.5t8 -39t9.5 -30h-94z" />
    <glyph glyph-name="b" unicode="b" horiz-adv-x="561" 
d="M325 499q45 0 82 -20t63 -54t40 -78t14 -93q0 -59 -19.5 -107.5t-54 -84t-81 -55t-99.5 -19.5q-21 0 -45.5 3t-50 9t-50 15t-45.5 20v581q0 32 -4 56t-9 38l105 24v-300q46 35 81 50t73 15zM284 45q30 0 56 12.5t46 36.5t31.5 59t11.5 80q0 43 -11.5 80t-31.5 63
t-47.5 41t-58.5 15q-21 0 -49 -11t-60 -34v-306q27 -17 56.5 -26.5t56.5 -9.5z" />
    <glyph glyph-name="c" unicode="c" horiz-adv-x="478" 
d="M439 40q-73 -52 -180 -52q-47 0 -88 18.5t-71 51.5t-47 80t-17 104q0 58 18.5 105t51.5 81t77 52.5t95 18.5q54 0 96.5 -9.5t64.5 -17.5v-119h-16q-27 42 -61 64.5t-89 22.5q-33 0 -60 -14t-45.5 -38.5t-28.5 -57.5t-10 -71q0 -97 46 -148.5t119 -51.5q37 0 70.5 7.5
t74.5 32.5v-59z" />
    <glyph glyph-name="d" unicode="d" horiz-adv-x="564" 
d="M389 0v65q-44 -40 -81 -58.5t-77 -18.5q-47 0 -83.5 20t-61.5 54t-37.5 78.5t-12.5 93.5q0 54 16.5 102t47 84t73.5 57.5t95 21.5q26 0 56 -7t65 -25v149q0 66 -11 94l103 24v-638q0 -22 2.5 -50.5t7.5 -45.5h-102zM270 55q28 0 58 15t61 43v301q-21 14 -48 24t-62 10
q-34 0 -61 -14.5t-46 -40t-29.5 -60.5t-10.5 -75q0 -44 11.5 -81t30.5 -64t44 -42.5t52 -15.5z" />
    <glyph glyph-name="e" unicode="e" horiz-adv-x="508" 
d="M124 267q0 -51 14 -90t38.5 -65.5t57 -40t69.5 -13.5q38 0 72 8t73 33v-59q-71 -52 -180 -52q-54 0 -97 19.5t-73 54t-46 80.5t-16 100q0 59 17.5 106.5t48.5 81t73.5 51.5t92.5 18q99 0 151.5 -60.5t52.5 -171.5h-348zM252 444q-47 0 -82 -37.5t-45 -94.5h243
q-2 64 -32 98t-84 34z" />
    <glyph glyph-name="f" unicode="f" horiz-adv-x="318" 
d="M193 487h108v-57h-108v-334q0 -11 1 -24t2.5 -26.5t3.5 -25.5t5 -20h-104v430h-86v57h86v12q0 57 15 101t41 74t60.5 45t74.5 15q21 0 40.5 -3.5t37.5 -9.5l-16 -96h-12q-20 24 -38.5 33.5t-39.5 9.5q-15 0 -27.5 -4t-22.5 -17.5t-15.5 -38t-5.5 -65.5v-56z" />
    <glyph glyph-name="g" unicode="g" 
d="M240 450q-41 0 -67 -31t-26 -82q0 -27 7 -50.5t20 -41.5t31.5 -28t41.5 -10q39 0 65.5 28.5t26.5 83.5q0 58 -28 94.5t-71 36.5zM247 -15q-35 4 -57.5 8.5t-31.5 6.5q-25 -15 -41.5 -41t-16.5 -62q0 -34 40 -56.5t112 -22.5q37 0 67.5 7t52 19.5t33.5 29t12 34.5
q0 19 -12.5 32t-35 21.5t-53.5 13.5t-69 10zM466 430h-75q16 -17 28 -46t12 -64q0 -33 -13.5 -62.5t-38 -51t-60 -34.5t-78.5 -13q-21 0 -40 3q-46 -24 -46 -52q0 -16 22.5 -26.5t80.5 -18.5l31 -4q30 -3 64 -8.5t63 -19t48.5 -37t19.5 -63.5q0 -39 -20 -70.5t-54 -53.5
t-77.5 -33.5t-91.5 -11.5q-35 0 -74 6t-72 20.5t-55 39t-22 62.5q0 36 30 67.5t86 52.5q-29 17 -43.5 35t-14.5 33q0 19 17.5 43t67.5 53q-109 51 -109 153q0 35 15 66t40.5 54t60.5 36.5t76 13.5q27 0 51 -7t36 -13l135 10v-59z" />
    <glyph glyph-name="h" unicode="h" horiz-adv-x="559" 
d="M390 0v294q0 74 -21 105.5t-69 31.5q-35 0 -67 -18.5t-61 -52.5v-264q0 -22 3 -50.5t8 -45.5h-103v616q0 32 -3.5 56t-8.5 38l104 24v-325q81 90 162 90q75 0 111.5 -46.5t36.5 -145.5v-211q0 -22 3 -50.5t7 -45.5h-102z" />
    <glyph glyph-name="i" unicode="i" horiz-adv-x="252" 
d="M172 96q0 -22 3 -50.5t8 -45.5h-103v380q0 66 -11 94l103 24v-402zM126 733q23 0 39 -15.5t16 -38.5q0 -21 -16 -37t-39 -16t-39 16.5t-16 36.5q0 21 16 37.5t39 16.5z" />
    <glyph glyph-name="j" unicode="j" horiz-adv-x="252" 
d="M-11 -198q6 0 21 11t30.5 34.5t27.5 59t12 85.5v388q0 32 -4 56.5t-9 37.5q22 6 46 11.5t59 13.5v-473q0 -64 -18 -113t-44 -82t-57 -50t-56 -17zM71 680q0 21 16 37t39 16t39 -15t16 -38q0 -22 -16 -37.5t-39 -15.5t-39 16t-16 37z" />
    <glyph glyph-name="k" unicode="k" horiz-adv-x="502" 
d="M173 274v-178q0 -22 3 -50.5t8 -45.5h-103v616q0 32 -4 56t-8 38l104 24v-442q29 26 57 50t57 50q38 32 61.5 57t34.5 38h103l-219 -192q18 -23 38.5 -48.5t41 -52t40.5 -52t38 -48.5q8 -11 19.5 -24t23.5 -26t23.5 -24.5t20.5 -19.5h-125z" />
    <glyph glyph-name="l" unicode="l" horiz-adv-x="256" 
d="M173 96q0 -22 3.5 -50.5t7.5 -45.5h-103v616q0 33 -3.5 56.5t-8.5 37.5l104 24v-638z" />
    <glyph glyph-name="m" unicode="m" horiz-adv-x="865" 
d="M696 0v294q0 74 -20.5 105.5t-69.5 31.5q-70 0 -127 -71v-264q0 -22 3 -50.5t7 -45.5h-102v294q0 74 -20.5 105.5t-69.5 31.5q-71 0 -128 -71v-264q0 -22 2.5 -50.5t7.5 -45.5h-102v380q0 32 -3.5 56t-8.5 38l104 24v-89q79 90 162 90q57 0 91.5 -28t48.5 -68
q42 48 85.5 72t82.5 24q75 0 112 -46.5t37 -145.5v-211q0 -22 3 -50.5t8 -45.5h-103z" />
    <glyph glyph-name="n" unicode="n" horiz-adv-x="556" 
d="M387 0v294q0 74 -20.5 105.5t-69.5 31.5q-71 0 -128 -71v-264q0 -22 2.5 -50.5t7.5 -45.5h-102v380q0 32 -3.5 56t-8.5 38l104 24v-89q79 90 162 90q75 0 111.5 -46.5t36.5 -145.5v-211q0 -22 3 -50.5t7 -45.5h-102z" />
    <glyph glyph-name="o" unicode="o" horiz-adv-x="578" 
d="M292 499q53 0 98.5 -20.5t78.5 -55t52 -80.5t19 -98q0 -59 -21.5 -106.5t-57.5 -81t-81.5 -51.5t-93.5 -18q-53 0 -99 20t-79.5 54.5t-52.5 80.5t-19 98q0 60 22 107.5t58 81t82 51.5t94 18zM298 45q64 0 104 47.5t40 135.5q0 44 -12 82.5t-33.5 67.5t-51.5 46t-66 17
q-63 0 -104 -47t-41 -135q0 -44 12 -83t33.5 -68t52 -46t66.5 -17z" />
    <glyph glyph-name="p" unicode="p" horiz-adv-x="561" 
d="M325 499q45 0 82 -20t63 -54t40 -78.5t14 -93.5q0 -54 -16.5 -102t-47 -84t-73.5 -57.5t-95 -21.5q-26 0 -56 7t-65 25v-149q0 -22 3 -50.5t8 -45.5h-103v605q0 33 -3.5 56.5t-8.5 37.5l104 24v-64q47 35 81.5 50t72.5 15zM281 39q34 0 61 14.5t46 40t29.5 60t10.5 75.5
q0 43 -11.5 80.5t-31 64.5t-47 42.5t-58.5 15.5q-21 0 -49 -11t-60 -34v-314q21 -14 48 -24t62 -10z" />
    <glyph glyph-name="q" unicode="q" horiz-adv-x="562" 
d="M276 442q-30 0 -56 -12.5t-46 -36.5t-31.5 -59t-11.5 -80q0 -44 11.5 -80.5t31.5 -62.5t47 -41t59 -15q43 0 109 46v313q-55 28 -113 28zM235 -12q-45 0 -82 20t-63 53.5t-40 78t-14 93.5q0 58 19.5 107t54 84.5t81 55t99.5 19.5q21 0 45.5 -3t50 -9t50 -15t45.5 -20
v-570q0 -32 4 -56t9 -38l-105 -24v289q-46 -34 -81 -49.5t-73 -15.5z" />
    <glyph glyph-name="r" unicode="r" horiz-adv-x="388" 
d="M292 413q-57 0 -88.5 -51.5t-31.5 -137.5v-128q0 -22 3 -50.5t8 -45.5h-103v380q0 32 -3 56t-8 38l103 24v-117q35 63 75 90.5t93 27.5q6 0 12 -0.5t12 -1.5v-109h-12q-13 12 -26.5 18.5t-33.5 6.5z" />
    <glyph glyph-name="s" unicode="s" horiz-adv-x="423" 
d="M385 135q0 -34 -15 -61t-40 -46t-58.5 -29.5t-69.5 -10.5q-51 0 -89 11t-66 23v91h11q38 -34 77 -52.5t76 -18.5q35 0 60 19.5t25 48.5q0 26 -19.5 46.5t-68.5 44.5q-47 23 -77 42t-47 37t-23.5 37.5t-6.5 43.5q0 29 12.5 54.5t34.5 44t52 29t65 10.5q47 0 82.5 -12
t64.5 -23v-98h-11q-35 38 -67.5 58t-66.5 20q-39 0 -61.5 -18t-22.5 -41q0 -29 30 -51.5t78 -45.5q30 -15 56 -31t45 -34t29.5 -39.5t10.5 -48.5z" />
    <glyph glyph-name="t" unicode="t" horiz-adv-x="345" 
d="M318 19q-53 -31 -109 -31q-22 0 -43.5 6.5t-39 22.5t-28 42.5t-10.5 67.5v303h-78v12q85 62 158 177h12v-132h138v-57h-138v-285q0 -49 17 -68.5t49 -19.5q38 0 72 17v-55z" />
    <glyph glyph-name="u" unicode="u" horiz-adv-x="553" 
d="M384 0v65q-44 -40 -81 -58.5t-77 -18.5q-75 0 -113.5 45.5t-38.5 145.5v206q0 32 -3.5 54t-8.5 36l104 24v-306q0 -74 22.5 -106t76.5 -32q28 0 58 15t61 43v268q0 33 -4 56.5t-9 37.5l105 24v-403q0 -22 3 -50.5t7 -45.5h-102z" />
    <glyph glyph-name="v" unicode="v" horiz-adv-x="490" 
d="M481 487l-220 -499h-25l-172 404q-5 10 -11.5 23.5t-13.5 26.5t-14 25t-13 20h108l143 -340l105 243q10 22 19.5 51t11.5 46h82z" />
    <glyph glyph-name="w" unicode="w" horiz-adv-x="732" 
d="M723 487l-193 -499h-27l-141 317l-140 -317h-25l-145 408q-11 31 -20 52t-20 39h101q8 -22 19 -53t23 -65l24 -68t22 -63.5t17 -51t9 -29.5l135 310h26l136 -312l93 235q9 23 17 51.5t10 45.5h79z" />
    <glyph glyph-name="x" unicode="x" horiz-adv-x="496" 
d="M398 0l-153 197l-79 -99q-9 -11 -19 -24.5t-20 -27.5t-17.5 -26t-10.5 -20h-95l201 249q-27 35 -57.5 73.5t-57.5 73.5q-24 30 -46 53.5t-36 37.5h121q2 -4 5.5 -9t9.5 -13.5t16.5 -22t26.5 -34.5l72 -92q15 18 30.5 38t30.5 38q29 35 44.5 58.5t20.5 36.5h99
q-17 -17 -66 -75q-29 -36 -59 -74t-59 -74l132 -170q8 -10 19 -23t22.5 -26t22.5 -25t20 -20h-118z" />
    <glyph glyph-name="y" unicode="y" horiz-adv-x="489" 
d="M481 487q-50 -112 -91 -208q-18 -41 -35.5 -82t-33.5 -77t-28 -64t-18 -43q-30 -72 -58 -120t-55 -76.5t-55 -40.5t-59 -12l-15 79q37 1 63 14.5t46.5 38t38 60.5t37.5 81l-156 355l-11.5 23t-14 26t-15 25t-13.5 21h108l150 -340l102 243q10 23 19.5 51.5t11.5 45.5h82z
" />
    <glyph glyph-name="z" unicode="z" horiz-adv-x="478" 
d="M153 429q-22 0 -52 -3t-47 -8v69h392v-18l-290 -411h191q23 0 52.5 3t46.5 8v-69h-419v24l286 405h-160z" />
    <glyph glyph-name="braceleft" unicode="{" horiz-adv-x="384" 
d="M363 689q-35 -6 -57.5 -14.5t-35.5 -22t-18 -34t-5 -48.5q0 -14 2 -31l4 -34l4 -34t2 -30q0 -68 -31.5 -115t-108.5 -77q77 -30 108.5 -77t31.5 -115q0 -28 -6 -64.5t-6 -64.5q0 -29 5 -49t18 -34t35.5 -22.5t57.5 -14.5v-44q-47 2 -83.5 14.5t-61.5 36.5t-38 62t-13 91
q0 38 4.5 72t4.5 69q0 20 -5 40t-17.5 36.5t-34.5 27.5t-56 13v46q34 2 56 13t34.5 27.5t17.5 36.5t5 40q0 35 -4.5 69t-4.5 72q0 53 13 91t38 62t61.5 36.5t83.5 14.5v-45z" />
    <glyph glyph-name="bar" unicode="|" horiz-adv-x="257" 
d="M155 734v-970h-53v970h53z" />
    <glyph glyph-name="braceright" unicode="}" horiz-adv-x="384" 
d="M21 734q47 -2 83.5 -14.5t61.5 -36.5t38 -62t13 -91q0 -38 -4.5 -72t-4.5 -69q0 -20 5 -40t17.5 -36.5t34.5 -27.5t56 -13v-46q-34 -2 -56 -13t-34.5 -27.5t-17.5 -36.5t-5 -40q0 -35 4.5 -69t4.5 -72q0 -53 -13 -91t-38 -62t-61.5 -36.5t-83.5 -14.5v44q35 6 57.5 14.5
t35.5 22.5t18 34t5 49q0 28 -6 64.5t-6 64.5q0 68 31.5 115t108.5 77q-77 30 -108.5 77t-31.5 115q0 13 2 30l4 34l4 34t2 31q0 28 -5 48.5t-18 34t-35.5 22t-57.5 14.5v45z" />
    <glyph glyph-name="asciitilde" unicode="~" horiz-adv-x="550" 
d="M522 411q0 -92 -33.5 -137t-86.5 -45q-36 0 -67 13.5t-62 30.5t-62.5 33t-68.5 21q-23 0 -34.5 -21.5t-11.5 -76.5h-70q0 96 33.5 139.5t86.5 43.5q36 0 67 -13.5t62 -31t62.5 -33.5t68.5 -20q23 0 34.5 21.5t11.5 76.5z" />
    <glyph glyph-name="uni00A0" unicode="&#xa0;" horiz-adv-x="0" 
 />
    <glyph glyph-name="exclamdown" unicode="&#xa1;" horiz-adv-x="294" 
d="M149 377q-26 0 -45.5 18t-19.5 43t19.5 43t44.5 18q26 0 44 -18t18 -43t-18 -43t-43 -18zM103 -224q0 4 -0.5 15.5t-0.5 26.5t-0.5 30t-0.5 25v61q0 15 2 45t5 66.5t6.5 77t6.5 75t5.5 60.5t3.5 35h34q8 -85 15 -157q3 -31 5.5 -62t4.5 -58.5t3.5 -49t1.5 -32.5v-61
q0 -11 -0.5 -26t-1.5 -30t-1.5 -26.5t-0.5 -14.5h-87z" />
    <glyph glyph-name="cent" unicode="&#xa2;" horiz-adv-x="480" 
d="M438 53q-29 -28 -65.5 -43t-78.5 -20v-73h-46v71q-45 2 -83.5 21.5t-67 52.5t-44.5 78.5t-16 101.5q0 53 16 97.5t44 78t67 54t84 25.5v76h46v-74q48 -2 86 -11t58 -16v-117h-14q-25 38 -54.5 59.5t-75.5 26.5v-374q38 0 72 9.5t72 40.5v-64zM128 259q0 -72 33.5 -120.5
t86.5 -64.5v365q-28 -5 -50.5 -21.5t-38 -40.5t-23.5 -54.5t-8 -63.5z" />
    <glyph glyph-name="sterling" unicode="&#xa3;" horiz-adv-x="539" 
d="M438 60q20 0 47.5 2.5t44.5 7.5q-5 -20 -8.5 -35.5t-8.5 -34.5h-475v60h59v195h-83v44h83v92h-83v44h83v12q0 57 18 104t49 81t73.5 53.5t92.5 19.5q48 0 84.5 -12.5t65.5 -24.5v-98h-9q-35 39 -71.5 58t-71.5 19t-60.5 -15t-42 -40t-24.5 -58t-8 -70v-29h271v-44h-271
v-92h271v-44h-271v-195h245z" />
    <glyph glyph-name="currency" unicode="&#xa4;" horiz-adv-x="518" 
d="M460 344q0 -34 -10.5 -64.5t-29.5 -56.5l60 -60l-40 -41l-61 61q-26 -19 -56 -30t-65 -11q-34 0 -64.5 11t-56.5 30l-60 -61l-40 41l60 60q-19 26 -30 56.5t-11 64.5t11 64.5t30 56.5l-60 60l40 41l60 -61q26 19 56.5 30t64.5 11q35 0 65 -11t56 -30l61 61l40 -41
l-60 -60q19 -26 29.5 -56.5t10.5 -64.5zM258 200q30 0 56 11.5t45.5 31t31 45.5t11.5 56t-11.5 56t-31 45.5t-45.5 31t-56 11.5t-56 -11.5t-45.5 -31t-31 -45.5t-11.5 -56t11.5 -56t31 -45.5t45.5 -31t56 -11.5z" />
    <glyph glyph-name="yen" unicode="&#xa5;" horiz-adv-x="669" 
d="M465 435h139v-44h-168l-44 -60v-32h212v-44h-212v-164q0 -10 0.5 -22.5t2 -25t3.5 -24t4 -19.5h-106v255h-212v44h212v27l-47 65h-165v44h135l-123 169q-8 10 -17.5 22.5t-19.5 24.5t-19.5 23t-17.5 19h123l215 -300l146 207q7 10 15.5 23t16 26t13.5 24.5t9 19.5h90z
" />
    <glyph glyph-name="brokenbar" unicode="&#xa6;" horiz-adv-x="257" 
d="M155 734v-394h-53v394h53zM155 158v-394h-53v394h53z" />
    <glyph glyph-name="section" unicode="&#xa7;" horiz-adv-x="449" 
d="M415 236q0 -31 -9.5 -58.5t-25.5 -50.5t-36.5 -41t-41.5 -31q29 -31 46.5 -64.5t17.5 -73.5q0 -32 -12.5 -59.5t-34 -48.5t-50.5 -33t-62 -12q-42 0 -75.5 12.5t-59.5 24.5v98h8q32 -39 62 -60.5t61 -21.5q42 0 68 19.5t26 51.5q0 22 -10.5 44t-27.5 42.5t-38 39.5
t-43 36q-26 21 -51.5 43.5t-46 48t-33.5 55t-13 64.5q0 31 10 58.5t26 50.5t36.5 41t41.5 32q-28 30 -46.5 64t-18.5 74q0 32 12.5 60t34 48.5t51 32.5t63.5 12q43 0 76 -12.5t59 -24.5v-98h-8q-31 39 -61.5 60.5t-61.5 21.5q-42 0 -68.5 -19.5t-26.5 -51.5q0 -24 10 -45
t26.5 -40.5t37.5 -38t44 -36.5q27 -22 52.5 -45t46 -48.5t33 -55.5t12.5 -65zM269 87q33 15 57 47t24 72q0 23 -11 45t-28 42.5t-39.5 40t-44.5 37.5l-47 40q-32 -15 -56 -46.5t-24 -73.5q0 -24 10 -45t27 -40.5t39 -38.5t45 -38q11 -10 23.5 -20.5t24.5 -21.5z" />
    <glyph glyph-name="dieresis" unicode="&#xa8;" horiz-adv-x="321" 
d="M250 673q22 0 37.5 -16t15.5 -37q0 -22 -15 -37.5t-37 -15.5t-37.5 16t-15.5 37q0 22 15.5 37.5t36.5 15.5zM70 673q22 0 37.5 -16t15.5 -37t-15.5 -37t-36.5 -16t-37 16t-16 37q0 22 15.5 37.5t36.5 15.5z" />
    <glyph glyph-name="copyright" unicode="&#xa9;" horiz-adv-x="853" 
d="M37 316q0 78 31 148.5t84 124t124 85t151 31.5q84 0 155.5 -32.5t123 -86.5t81 -124t29.5 -146q0 -87 -33 -158.5t-88 -123t-125 -79.5t-143 -28q-84 0 -155.5 32t-123.5 85.5t-81.5 124t-29.5 147.5zM81 316q0 -69 27 -131.5t73.5 -110t110 -75.5t135.5 -28
q70 0 133 27.5t110 74.5t74.5 109.5t27.5 133.5q0 70 -27 132.5t-74 109.5t-110 75t-134 28q-72 0 -135 -28t-110 -75t-74 -109.5t-27 -132.5zM597 173q-69 -73 -172 -73q-52 0 -93 18t-69 47.5t-43 68t-15 80.5q0 52 19.5 93t51 69.5t72.5 44t85 15.5q54 0 94.5 -11.5
t59.5 -19.5v-83q-32 34 -70.5 53t-80.5 19q-69 0 -110 -49.5t-41 -131.5q0 -39 11.5 -70.5t32.5 -53.5t49.5 -34t61.5 -12q19 0 36 3.5t35 12.5t38 24t43 38z" />
    <glyph glyph-name="ordfeminine" unicode="&#xaa;" horiz-adv-x="304" 
d="M256 478q0 -28 5.5 -56.5t14.5 -48.5h-70q-6 13 -9 36q-32 -24 -55.5 -34t-47.5 -10q-34 0 -56.5 22.5t-22.5 57.5q0 26 12 44.5t34.5 33.5t55.5 28.5t75 28.5v13q0 37 -17 50.5t-44 13.5q-21 0 -44 -5.5t-49 -19.5v41q26 16 50.5 24t55.5 8q54 0 84 -24.5t30 -83.5
q0 -29 -1 -59.5t-1 -59.5zM124 416q29 0 69 27q-1 7 -1.5 22t-0.5 31v48q-31 -12 -51.5 -21t-33 -18t-18 -19.5t-5.5 -24.5q0 -21 11 -33t30 -12z" />
    <glyph glyph-name="guillemotleft" unicode="&#xab;" horiz-adv-x="478" 
d="M242 0h-51l-167 225l167 224h51l-131 -224zM454 0h-51l-168 225l168 224h51l-132 -224z" />
    <glyph glyph-name="logicalnot" unicode="&#xac;" horiz-adv-x="518" 
d="M489 362v-260h-57v202h-403v58h460z" />
    <glyph glyph-name="registered" unicode="&#xae;" horiz-adv-x="853" 
d="M363 164q0 -11 2 -28.5t4 -28.5h-80v366q0 17 -2.5 31.5t-5.5 23.5h101q28 0 59 -4t57 -16.5t43 -34.5t17 -58q0 -35 -20.5 -62t-64.5 -43q28 -37 46 -61.5t29.5 -40t19 -25.5t14.5 -19q8 -10 22.5 -27t27.5 -30h-92l-141 186h-36v-129zM363 335h13q57 0 79.5 20.5
t22.5 57.5q0 33 -23.5 54t-67.5 21l-24 -2v-151zM37 316q0 78 31 148.5t84 124t124 85t151 31.5q84 0 155.5 -32.5t123 -86.5t81 -124t29.5 -146q0 -87 -33 -158.5t-88 -123t-125 -79.5t-143 -28q-84 0 -155.5 32t-123.5 85.5t-81.5 124t-29.5 147.5zM81 316
q0 -69 27 -131.5t73.5 -110t110 -75.5t135.5 -28q70 0 133 27.5t110 74.5t74.5 109.5t27.5 133.5q0 70 -27 132.5t-74 109.5t-110 75t-134 28q-72 0 -135 -28t-110 -75t-74 -109.5t-27 -132.5z" />
    <glyph glyph-name="macron" unicode="&#xaf;" horiz-adv-x="306" 
d="M289 838v-57h-272v57h272z" />
    <glyph glyph-name="degree" unicode="&#xb0;" horiz-adv-x="357" 
d="M44 566q0 28 11 53.5t30.5 44.5t44.5 30t54 11q28 0 53.5 -11t44.5 -30t30 -44.5t11 -53.5q0 -29 -11 -54.5t-29.5 -44.5t-44 -30t-54.5 -11t-54.5 11t-44.5 30t-30 44.5t-11 54.5zM85 566q0 -20 7.5 -38t21 -31.5t31.5 -21.5t39 -8q42 0 70 29t28 70t-28 69.5t-70 28.5
q-21 0 -39 -7.5t-31.5 -21t-21 -31.5t-7.5 -38z" />
    <glyph glyph-name="plusminus" unicode="&#xb1;" horiz-adv-x="518" 
d="M29 50h460v-58h-460v58zM489 366v-57h-201v-202h-58v202h-201v57h201v202h58v-202h201z" />
    <glyph glyph-name="uni00B2" unicode="&#xb2;" horiz-adv-x="326" 
d="M246 499q13 0 31.5 2t31.5 5l-12 -62h-279v8l20 21q47 46 79 82.5t52 65.5t29 53t9 45q0 34 -21 56t-52 22q-26 0 -46 -11t-46 -40l-7 53q19 23 48.5 37.5t66.5 14.5q29 0 53 -9t41.5 -25t27.5 -36.5t10 -44.5q0 -26 -11.5 -54.5t-32.5 -58.5q-10 -14 -24.5 -30.5
t-30.5 -33.5t-31.5 -33t-27.5 -27h122z" />
    <glyph glyph-name="uni00B3" unicode="&#xb3;" horiz-adv-x="326" 
d="M283 566q0 -29 -12 -52.5t-33 -40.5t-50.5 -26.5t-63.5 -9.5q-29 0 -55.5 6t-48.5 19l17 37q17 -8 39.5 -12.5t50.5 -4.5q16 0 31 5.5t26.5 15t18.5 22t7 26.5q0 35 -28 57t-79 23v34q48 5 70 24.5t22 50.5q0 26 -17 41.5t-44 15.5q-26 0 -46.5 -11.5t-46.5 -40.5
q-2 14 -3.5 27t-4.5 27q20 22 49.5 36.5t66.5 14.5q54 0 87 -27t33 -69q0 -48 -54 -84v-6q37 -17 52.5 -43t15.5 -55z" />
    <glyph glyph-name="acute" unicode="&#xb4;" horiz-adv-x="326" 
d="M328 699l-133 -164h-45l63 164h115z" />
    <glyph glyph-name="mu" unicode="&#xb5;" horiz-adv-x="597" 
d="M405 0v80q-83 -92 -162 -92q-38 0 -74 15v-32q0 -25 2 -52t4 -50.5t4.5 -42t4.5 -26.5h-88v585q0 32 -4 54t-9 36l102 24v-306q0 -74 21 -105.5t69 -31.5q71 0 130 71v254q0 33 -4 56.5t-9 37.5l103 24v-403q0 -22 3 -50.5t8 -45.5h-101z" />
    <glyph glyph-name="paragraph" unicode="&#xb6;" horiz-adv-x="512" 
d="M451 643v-879h-53v879h-105v-879h-53v548q-108 5 -162 53.5t-54 137.5q0 46 17.5 81.5t47.5 59.5t70.5 36.5t86.5 12.5h272v-50h-67z" />
    <glyph glyph-name="periodcentered" unicode="&#xb7;" horiz-adv-x="244" 
d="M121 355q25 0 44 -18t19 -43t-19 -43t-43 -18q-26 0 -43.5 18t-17.5 43t17.5 43t42.5 18z" />
    <glyph glyph-name="cedilla" unicode="&#xb8;" horiz-adv-x="327" 
d="M195 0h41l-26 -51q33 -9 50.5 -31t17.5 -51q0 -20 -8 -38.5t-23.5 -33t-38 -23t-50.5 -8.5q-23 0 -47 3v40q5 0 8 -0.5t7 -1.5q3 -1 7 -1h7q26 0 45 15t19 38q0 17 -13 29.5t-39 12.5h-5z" />
    <glyph glyph-name="uni00B9" unicode="&#xb9;" horiz-adv-x="258" 
d="M192 503q0 -14 2 -31.5t5 -27.5h-82v323q-12 -7 -27 -15.5t-43 -24.5v48l131 76h14v-348z" />
    <glyph glyph-name="ordmasculine" unicode="&#xba;" horiz-adv-x="375" 
d="M190 705q35 0 65 -13.5t52 -36.5t34.5 -54t12.5 -65q0 -39 -14.5 -70.5t-38 -54t-54 -34.5t-61.5 -12q-35 0 -65.5 13.5t-53 36.5t-35 53.5t-12.5 65.5q0 39 14.5 71t38.5 54t54.5 34t62.5 12zM194 410q41 0 65.5 30t24.5 85q0 28 -7.5 52.5t-21 43t-32.5 29t-42 10.5
q-40 0 -65.5 -30t-25.5 -85q0 -28 7.5 -52.5t21 -43t33 -29t42.5 -10.5z" />
    <glyph glyph-name="guillemotright" unicode="&#xbb;" horiz-adv-x="478" 
d="M236 449h51l167 -225l-167 -224h-51l133 224zM24 449h51l168 -225l-168 -224h-50l131 224z" />
    <glyph glyph-name="onequarter" unicode="&#xbc;" horiz-adv-x="640" 
d="M175 352q0 -14 2 -31.5t5 -27.5h-82v323q-12 -7 -27 -15.5t-43 -24.5v48l131 76h14v-348zM555 693l-444 -693h-42l444 693h42zM610 163v-50h-52v-113h-74v113h-183v36q52 65 104 128t105 127h48v-241h52zM484 163v144l-117 -144h117z" />
    <glyph glyph-name="onehalf" unicode="&#xbd;" horiz-adv-x="729" 
d="M175 352q0 -14 2 -31.5t5 -27.5h-82v323q-12 -7 -27 -15.5t-43 -24.5v48l131 76h14v-348zM555 693l-444 -693h-42l444 693h42zM636 55q13 0 31.5 2t31.5 5l-12 -62h-279v8l20 21q47 46 79 82.5t52 65.5t29 53t9 45q0 34 -21 56t-52 22q-26 0 -46 -11t-46 -40l-7 53
q19 23 48.5 37.5t66.5 14.5q29 0 53 -9t41.5 -25t27.5 -36.5t10 -44.5q0 -26 -11.5 -54.5t-32.5 -58.5q-10 -14 -24.5 -30.5t-30.5 -33.5t-31.5 -33t-27.5 -27h122z" />
    <glyph glyph-name="threequarters" unicode="&#xbe;" horiz-adv-x="698" 
d="M283 415q0 -29 -12 -52.5t-33 -40.5t-50.5 -26.5t-63.5 -9.5q-29 0 -55.5 6t-48.5 19l17 37q17 -8 39.5 -12.5t50.5 -4.5q16 0 31 5.5t26.5 15t18.5 22t7 26.5q0 35 -28 57t-79 23v34q48 5 70 24.5t22 50.5q0 26 -17 41.5t-44 15.5q-26 0 -46.5 -11.5t-46.5 -40.5
q-2 14 -3.5 27t-4.5 27q20 22 49.5 36.5t66.5 14.5q54 0 87 -27t33 -69q0 -48 -54 -84v-6q37 -17 52.5 -43t15.5 -55zM615 693l-444 -693h-42l444 693h42zM668 163v-50h-52v-113h-74v113h-183v36q52 65 104 128t105 127h48v-241h52zM542 163v144l-117 -144h117z" />
    <glyph glyph-name="questiondown" unicode="&#xbf;" horiz-adv-x="383" 
d="M214 377q-26 0 -45 18t-19 43t19 43t44 18q26 0 44 -18t18 -43t-18 -43t-43 -18zM136 -69q0 -38 23.5 -64t55.5 -26q25 0 54 15t50 44q3 -25 6.5 -46.5t6.5 -45.5q-46 -44 -127 -44q-30 0 -58 11.5t-49 31.5t-34 48t-13 61q0 29 7.5 53.5t19 46.5t26 41t29.5 36
q15 18 30.5 37.5t27.5 41.5t19.5 47.5t7.5 56.5v16t-1 16l36 10q4 -15 5.5 -33t1.5 -31q0 -45 -7 -78.5t-18 -58t-24.5 -43.5t-26.5 -35q-20 -25 -34 -49t-14 -59z" />
    <glyph glyph-name="Agrave" unicode="&#xc0;" horiz-adv-x="681" 
d="M128 92q-9 -20 -17.5 -47.5t-10.5 -44.5h-82l304 705h20l269 -606q4 -9 10.5 -22l13.5 -27t14.5 -27t13.5 -23h-115q-7 23 -15 43.5t-22 55.5q-9 17 -15 31t-10 23q-4 11 -8 19h-316zM188 231h263l-135 307zM190 902h115l63 -164h-43z" />
    <glyph glyph-name="Aacute" unicode="&#xc1;" horiz-adv-x="681" 
d="M128 92q-9 -20 -17.5 -47.5t-10.5 -44.5h-82l304 705h20l269 -606q4 -9 10.5 -22l13.5 -27t14.5 -27t13.5 -23h-115q-7 23 -15 43.5t-22 55.5q-9 17 -15 31t-10 23q-4 11 -8 19h-316zM188 231h263l-135 307zM468 902l-133 -164h-45l63 164h115z" />
    <glyph glyph-name="Acircumflex" unicode="&#xc2;" horiz-adv-x="681" 
d="M128 92q-9 -20 -17.5 -47.5t-10.5 -44.5h-82l304 705h20l269 -606q4 -9 10.5 -22l13.5 -27t14.5 -27t13.5 -23h-115q-7 23 -15 43.5t-22 55.5q-9 17 -15 31t-10 23q-4 11 -8 19h-316zM188 231h263l-135 307zM280 903h95l99 -163h-41l-105 98l-105 -98h-39z" />
    <glyph glyph-name="Atilde" unicode="&#xc3;" horiz-adv-x="681" 
d="M128 92q-9 -20 -17.5 -47.5t-10.5 -44.5h-82l304 705h20l269 -606q4 -9 10.5 -22l13.5 -27t14.5 -27t13.5 -23h-115q-7 23 -15 43.5t-22 55.5q-9 17 -15 31t-10 23q-4 11 -8 19h-316zM188 231h263l-135 307zM171 760q3 36 10.5 60.5t19.5 39t27.5 20.5t33.5 6
q20 0 44 -10t42 -20q16 -8 33 -15.5t32 -7.5q3 0 9 2.5t12 8.5t11.5 16.5t8.5 27.5h31q-1 -62 -26.5 -95.5t-63.5 -33.5q-21 0 -42.5 9t-41.5 19l1 -1l-6 4l-11 5q-14 7 -27.5 12.5t-24.5 5.5q-4 0 -9.5 -1.5t-10.5 -6.5t-10 -15.5t-8 -29.5h-34z" />
    <glyph glyph-name="Adieresis" unicode="&#xc4;" horiz-adv-x="681" 
d="M128 92q-9 -20 -17.5 -47.5t-10.5 -44.5h-82l304 705h20l269 -606q4 -9 10.5 -22l13.5 -27t14.5 -27t13.5 -23h-115q-7 23 -15 43.5t-22 55.5q-9 17 -15 31t-10 23q-4 11 -8 19h-316zM188 231h263l-135 307zM415 876q22 0 37.5 -16t15.5 -37q0 -22 -15 -37.5t-37 -15.5
t-37.5 16t-15.5 37q0 22 15.5 37.5t36.5 15.5zM235 876q22 0 37.5 -16t15.5 -37t-15.5 -37t-36.5 -16t-37 16t-16 37q0 22 15.5 37.5t36.5 15.5z" />
    <glyph glyph-name="Aring" unicode="&#xc5;" horiz-adv-x="681" 
d="M128 92q-9 -20 -17.5 -47.5t-10.5 -44.5h-82l304 705h20l269 -606q4 -9 10.5 -22l13.5 -27t14.5 -27t13.5 -23h-115q-7 23 -15 43.5t-22 55.5q-9 17 -15 31t-10 23q-4 11 -8 19h-316zM188 231h263l-135 307zM231 834q0 19 7.5 36t20.5 30t30 20.5t36 7.5t36 -7.5
t30 -20.5t20.5 -30t7.5 -36t-7.5 -36t-20.5 -30t-30 -20.5t-36 -7.5t-36 7.5t-30 20.5t-20.5 30t-7.5 36zM271 834q0 -23 15.5 -38.5t38.5 -15.5t38.5 15.5t15.5 38.5t-15.5 38.5t-38.5 15.5t-38.5 -15.5t-15.5 -38.5z" />
    <glyph glyph-name="AE" unicode="&#xc6;" horiz-adv-x="1127" 
d="M994 60q20 0 47 2.5t45 7.5q-5 -18 -8 -35t-7 -35h-430v326h-252l-205 -233q-9 -11 -20 -24.5t-21 -26.5t-18 -24t-12 -18h-92l606 693h419q5 -18 7.5 -35t7.5 -35q-17 4 -44.5 7t-46.5 3h-233v-248h191q10 0 23 0.5t25.5 2t24 3.5t19.5 5v-80q-8 2 -19.5 4t-24 3.5
t-25.5 2t-23 0.5h-191v-266h257zM440 385h201v231z" />
    <glyph glyph-name="Ccedilla" unicode="&#xc7;" horiz-adv-x="704" 
d="M392 -11q-83 3 -148 33t-109.5 78.5t-68 110.5t-23.5 129q0 85 31 153t83 115t118.5 72t138.5 25q43 0 80 -5.5t67.5 -13t53.5 -15.5t38 -14l11 -106h-11q-44 39 -101.5 66.5t-132.5 27.5q-62 0 -112 -22t-85 -62.5t-54 -96.5t-19 -125q0 -66 20.5 -118.5t57 -89t86 -56
t107.5 -19.5q66 0 126.5 23t111.5 65l29 -43q-52 -48 -114 -77.5t-140 -34.5l-20 -40q33 -9 50.5 -31t17.5 -51q0 -20 -8 -38.5t-23.5 -33t-38 -23t-50.5 -8.5q-23 0 -47 3v40q5 0 8 -0.5t7 -1.5q3 -1 7 -1h7q26 0 45 15t19 38q0 17 -13 29.5t-39 12.5h-5z" />
    <glyph glyph-name="Egrave" unicode="&#xc8;" horiz-adv-x="576" 
d="M444 60q20 0 47 2.5t44 7.5l-7 -70h-431v605q0 29 -3.5 51.5t-8.5 36.5h420l7 -70q-16 5 -43 7.5t-47 2.5h-229v-248h191q10 0 22.5 0.5t25.5 2t24.5 3.5t19.5 5v-80q-8 2 -19.5 4t-24.5 3.5t-25.5 2t-22.5 0.5h-191v-266h251zM165 902h115l63 -164h-43z" />
    <glyph glyph-name="Eacute" unicode="&#xc9;" horiz-adv-x="576" 
d="M444 60q20 0 47 2.5t44 7.5l-7 -70h-431v605q0 29 -3.5 51.5t-8.5 36.5h420l7 -70q-16 5 -43 7.5t-47 2.5h-229v-248h191q10 0 22.5 0.5t25.5 2t24.5 3.5t19.5 5v-80q-8 2 -19.5 4t-24.5 3.5t-25.5 2t-22.5 0.5h-191v-266h251zM425 902l-133 -164h-45l63 164h115z" />
    <glyph glyph-name="Ecircumflex" unicode="&#xca;" horiz-adv-x="576" 
d="M444 60q20 0 47 2.5t44 7.5l-7 -70h-431v605q0 29 -3.5 51.5t-8.5 36.5h420l7 -70q-16 5 -43 7.5t-47 2.5h-229v-248h191q10 0 22.5 0.5t25.5 2t24.5 3.5t19.5 5v-80q-8 2 -19.5 4t-24.5 3.5t-25.5 2t-22.5 0.5h-191v-266h251zM237 903h95l99 -163h-41l-105 98l-105 -98
h-39z" />
    <glyph glyph-name="Edieresis" unicode="&#xcb;" horiz-adv-x="576" 
d="M444 60q20 0 47 2.5t44 7.5l-7 -70h-431v605q0 29 -3.5 51.5t-8.5 36.5h420l7 -70q-16 5 -43 7.5t-47 2.5h-229v-248h191q10 0 22.5 0.5t25.5 2t24.5 3.5t19.5 5v-80q-8 2 -19.5 4t-24.5 3.5t-25.5 2t-22.5 0.5h-191v-266h251zM372 876q22 0 37.5 -16t15.5 -37
q0 -22 -15 -37.5t-37 -15.5t-37.5 16t-15.5 37q0 22 15.5 37.5t36.5 15.5zM192 876q22 0 37.5 -16t15.5 -37t-15.5 -37t-36.5 -16t-37 16t-16 37q0 22 15.5 37.5t36.5 15.5z" />
    <glyph glyph-name="Igrave" unicode="&#xcc;" horiz-adv-x="290" 
d="M97 0v605q0 29 -3.5 51.5t-8.5 36.5h112q-2 -9 -3 -25t-1 -48v-529q0 -10 0.5 -22.5t2 -25t3 -24t3.5 -19.5h-105zM6 902h115l63 -164h-43z" />
    <glyph glyph-name="Iacute" unicode="&#xcd;" horiz-adv-x="290" 
d="M97 0v605q0 29 -3.5 51.5t-8.5 36.5h112q-2 -9 -3 -25t-1 -48v-529q0 -10 0.5 -22.5t2 -25t3 -24t3.5 -19.5h-105zM284 902l-133 -164h-45l63 164h115z" />
    <glyph glyph-name="Icircumflex" unicode="&#xce;" horiz-adv-x="290" 
d="M97 0v605q0 29 -3.5 51.5t-8.5 36.5h112q-2 -9 -3 -25t-1 -48v-529q0 -10 0.5 -22.5t2 -25t3 -24t3.5 -19.5h-105zM96 903h95l99 -163h-41l-105 98l-105 -98h-39z" />
    <glyph glyph-name="Idieresis" unicode="&#xcf;" horiz-adv-x="290" 
d="M97 0v605q0 29 -3.5 51.5t-8.5 36.5h112q-2 -9 -3 -25t-1 -48v-529q0 -10 0.5 -22.5t2 -25t3 -24t3.5 -19.5h-105zM231 876q22 0 37.5 -16t15.5 -37q0 -22 -15 -37.5t-37 -15.5t-37.5 16t-15.5 37q0 22 15.5 37.5t36.5 15.5zM51 876q22 0 37.5 -16t15.5 -37t-15.5 -37
t-36.5 -16t-37 16t-16 37q0 22 15.5 37.5t36.5 15.5z" />
    <glyph glyph-name="Eth" unicode="&#xd0;" horiz-adv-x="767" 
d="M320 693q82 0 156 -20t129 -62.5t87.5 -108t32.5 -155.5q0 -84 -32.5 -149t-89.5 -109t-134 -66.5t-166 -22.5h-206v324h-100v44h100v237q0 32 -3.5 53.5t-8.5 34.5h235zM316 57q75 0 131.5 21.5t94.5 60t57 92t19 118.5q0 70 -23 123t-63.5 89t-96.5 54.5t-122 18.5
q-29 0 -59.5 -2t-60.5 -5v-259h132v-44h-132v-259q32 -4 63 -6t60 -2z" />
    <glyph glyph-name="Ntilde" unicode="&#xd1;" horiz-adv-x="791" 
d="M700 693q-2 -9 -4 -26t-2 -47v-632h-20l-510 574v-471q0 -10 0.5 -22.5t2 -25t3.5 -24t4 -19.5h-77v605q0 29 -3.5 51.5t-8.5 36.5h79l463 -515v427q0 30 -3 52.5t-8 35.5h84zM230 760q3 36 10.5 60.5t19.5 39t27.5 20.5t33.5 6q20 0 44 -10t42 -20q16 -8 33 -15.5
t32 -7.5q3 0 9 2.5t12 8.5t11.5 16.5t8.5 27.5h31q-1 -62 -26.5 -95.5t-63.5 -33.5q-21 0 -42.5 9t-41.5 19l1 -1l-6 4l-11 5q-14 7 -27.5 12.5t-24.5 5.5q-4 0 -9.5 -1.5t-10.5 -6.5t-10 -15.5t-8 -29.5h-34z" />
    <glyph glyph-name="Ograve" unicode="&#xd2;" horiz-adv-x="808" 
d="M408 705q76 0 141.5 -27.5t113.5 -75.5t75.5 -113.5t27.5 -142.5q0 -75 -28 -140.5t-77 -113.5t-116 -76t-145 -28q-77 0 -142 27.5t-113 75.5t-75 113.5t-27 142.5q0 75 27.5 140.5t76 114t115.5 76t146 27.5zM403 49q59 0 106.5 21t81 60t51.5 93.5t18 121.5t-18 122
t-51.5 94.5t-81 61.5t-105.5 22q-59 0 -106.5 -21t-80.5 -60t-50.5 -94t-17.5 -122q0 -66 18 -121t51 -94.5t80 -61.5t105 -22zM262 902h115l63 -164h-43z" />
    <glyph glyph-name="Oacute" unicode="&#xd3;" horiz-adv-x="808" 
d="M408 705q76 0 141.5 -27.5t113.5 -75.5t75.5 -113.5t27.5 -142.5q0 -75 -28 -140.5t-77 -113.5t-116 -76t-145 -28q-77 0 -142 27.5t-113 75.5t-75 113.5t-27 142.5q0 75 27.5 140.5t76 114t115.5 76t146 27.5zM403 49q59 0 106.5 21t81 60t51.5 93.5t18 121.5t-18 122
t-51.5 94.5t-81 61.5t-105.5 22q-59 0 -106.5 -21t-80.5 -60t-50.5 -94t-17.5 -122q0 -66 18 -121t51 -94.5t80 -61.5t105 -22zM539 902l-133 -164h-45l63 164h115z" />
    <glyph glyph-name="Ocircumflex" unicode="&#xd4;" horiz-adv-x="808" 
d="M408 705q76 0 141.5 -27.5t113.5 -75.5t75.5 -113.5t27.5 -142.5q0 -75 -28 -140.5t-77 -113.5t-116 -76t-145 -28q-77 0 -142 27.5t-113 75.5t-75 113.5t-27 142.5q0 75 27.5 140.5t76 114t115.5 76t146 27.5zM403 49q59 0 106.5 21t81 60t51.5 93.5t18 121.5t-18 122
t-51.5 94.5t-81 61.5t-105.5 22q-59 0 -106.5 -21t-80.5 -60t-50.5 -94t-17.5 -122q0 -66 18 -121t51 -94.5t80 -61.5t105 -22zM351 903h95l99 -163h-41l-105 98l-105 -98h-39z" />
    <glyph glyph-name="Otilde" unicode="&#xd5;" horiz-adv-x="808" 
d="M408 705q76 0 141.5 -27.5t113.5 -75.5t75.5 -113.5t27.5 -142.5q0 -75 -28 -140.5t-77 -113.5t-116 -76t-145 -28q-77 0 -142 27.5t-113 75.5t-75 113.5t-27 142.5q0 75 27.5 140.5t76 114t115.5 76t146 27.5zM403 49q59 0 106.5 21t81 60t51.5 93.5t18 121.5t-18 122
t-51.5 94.5t-81 61.5t-105.5 22q-59 0 -106.5 -21t-80.5 -60t-50.5 -94t-17.5 -122q0 -66 18 -121t51 -94.5t80 -61.5t105 -22zM242 760q3 36 10.5 60.5t19.5 39t27.5 20.5t33.5 6q20 0 44 -10t42 -20q16 -8 33 -15.5t32 -7.5q3 0 9 2.5t12 8.5t11.5 16.5t8.5 27.5h31
q-1 -62 -26.5 -95.5t-63.5 -33.5q-21 0 -42.5 9t-41.5 19l1 -1l-6 4l-11 5q-14 7 -27.5 12.5t-24.5 5.5q-4 0 -9.5 -1.5t-10.5 -6.5t-10 -15.5t-8 -29.5h-34z" />
    <glyph glyph-name="Odieresis" unicode="&#xd6;" horiz-adv-x="808" 
d="M408 705q76 0 141.5 -27.5t113.5 -75.5t75.5 -113.5t27.5 -142.5q0 -75 -28 -140.5t-77 -113.5t-116 -76t-145 -28q-77 0 -142 27.5t-113 75.5t-75 113.5t-27 142.5q0 75 27.5 140.5t76 114t115.5 76t146 27.5zM403 49q59 0 106.5 21t81 60t51.5 93.5t18 121.5t-18 122
t-51.5 94.5t-81 61.5t-105.5 22q-59 0 -106.5 -21t-80.5 -60t-50.5 -94t-17.5 -122q0 -66 18 -121t51 -94.5t80 -61.5t105 -22zM497 876q22 0 37.5 -16t15.5 -37q0 -22 -15 -37.5t-37 -15.5t-37.5 16t-15.5 37q0 22 15.5 37.5t36.5 15.5zM317 876q22 0 37.5 -16t15.5 -37
t-15.5 -37t-36.5 -16t-37 16t-16 37q0 22 15.5 37.5t36.5 15.5z" />
    <glyph glyph-name="multiply" unicode="&#xd7;" horiz-adv-x="518" 
d="M480 525l-181 -181l181 -181l-40 -41l-182 181l-181 -181l-40 41l181 181l-181 181l40 41l181 -182l182 182l40 -41v0z" />
    <glyph glyph-name="Oslash" unicode="&#xd8;" horiz-adv-x="808" 
d="M681 585q40 -47 62.5 -107.5t22.5 -130.5q0 -75 -28 -140.5t-77 -114t-116 -76.5t-145 -28q-71 0 -132 23.5t-108 65.5l-77 -74l-31 31l76 75q-40 48 -62.5 109t-22.5 130q0 75 27.5 140.5t76 113.5t115.5 75.5t146 27.5q70 0 131 -22t110 -64l75 74l31 -31l-74 -73v-4z
M149 349q0 -101 43 -178l398 392q-35 40 -81 61t-105 21t-106.5 -21t-80.5 -60t-50.5 -93.5t-17.5 -121.5zM403 49q59 0 106.5 21.5t80.5 60.5t51 93.5t18 121.5q0 51 -11 96t-31 83l-400 -391q34 -41 81.5 -63t104.5 -22z" />
    <glyph glyph-name="Ugrave" unicode="&#xd9;" horiz-adv-x="769" 
d="M672 273q0 -59 -17 -111t-52 -90.5t-89 -61t-127 -22.5q-86 0 -142 21.5t-89 62t-46 99.5t-13 134v300q0 32 -3.5 53.5t-7.5 34.5h111q-2 -9 -3 -25t-1 -48v-313q0 -52 7.5 -99t29 -82.5t60 -56.5t99.5 -21t102.5 19t67 53t36 81.5t10.5 104.5v299q0 32 -3.5 53.5
t-7.5 34.5h82q-2 -9 -3 -25t-1 -48v-347zM239 902h115l63 -164h-43z" />
    <glyph glyph-name="Uacute" unicode="&#xda;" horiz-adv-x="769" 
d="M672 273q0 -59 -17 -111t-52 -90.5t-89 -61t-127 -22.5q-86 0 -142 21.5t-89 62t-46 99.5t-13 134v300q0 32 -3.5 53.5t-7.5 34.5h111q-2 -9 -3 -25t-1 -48v-313q0 -52 7.5 -99t29 -82.5t60 -56.5t99.5 -21t102.5 19t67 53t36 81.5t10.5 104.5v299q0 32 -3.5 53.5
t-7.5 34.5h82q-2 -9 -3 -25t-1 -48v-347zM516 902l-133 -164h-45l63 164h115z" />
    <glyph glyph-name="Ucircumflex" unicode="&#xdb;" horiz-adv-x="769" 
d="M672 273q0 -59 -17 -111t-52 -90.5t-89 -61t-127 -22.5q-86 0 -142 21.5t-89 62t-46 99.5t-13 134v300q0 32 -3.5 53.5t-7.5 34.5h111q-2 -9 -3 -25t-1 -48v-313q0 -52 7.5 -99t29 -82.5t60 -56.5t99.5 -21t102.5 19t67 53t36 81.5t10.5 104.5v299q0 32 -3.5 53.5
t-7.5 34.5h82q-2 -9 -3 -25t-1 -48v-347zM349 903h95l99 -163h-41l-105 98l-105 -98h-39z" />
    <glyph glyph-name="Udieresis" unicode="&#xdc;" horiz-adv-x="769" 
d="M672 273q0 -59 -17 -111t-52 -90.5t-89 -61t-127 -22.5q-86 0 -142 21.5t-89 62t-46 99.5t-13 134v300q0 32 -3.5 53.5t-7.5 34.5h111q-2 -9 -3 -25t-1 -48v-313q0 -52 7.5 -99t29 -82.5t60 -56.5t99.5 -21t102.5 19t67 53t36 81.5t10.5 104.5v299q0 32 -3.5 53.5
t-7.5 34.5h82q-2 -9 -3 -25t-1 -48v-347zM463 876q22 0 37.5 -16t15.5 -37q0 -22 -15 -37.5t-37 -15.5t-37.5 16t-15.5 37q0 22 15.5 37.5t36.5 15.5zM283 876q22 0 37.5 -16t15.5 -37t-15.5 -37t-36.5 -16t-37 16t-16 37q0 22 15.5 37.5t36.5 15.5z" />
    <glyph glyph-name="Yacute" unicode="&#xdd;" horiz-adv-x="665" 
d="M389 91q0 -10 0.5 -22.5t2 -25t3.5 -24t4 -19.5h-106v326l-200 278q-14 20 -35.5 46.5t-38.5 42.5h123l215 -300l146 207q7 10 15.5 23t16 26t13.5 24.5t9 19.5h89l-257 -362v-240zM468 902l-133 -164h-45l63 164h115z" />
    <glyph glyph-name="Thorn" unicode="&#xde;" horiz-adv-x="561" 
d="M286 538q120 0 184 -51.5t64 -141.5q0 -93 -61 -142t-172 -49q-23 0 -52 2t-56 4v-69q0 -10 0.5 -22.5t2 -25t3 -24t3.5 -19.5h-105v605q0 29 -3.5 51.5t-8.5 36.5h112q-2 -9 -3 -25t-1 -48v-82h93zM275 208q72 0 112.5 33.5t40.5 99.5q0 74 -43.5 105.5t-119.5 31.5
q-17 0 -35.5 -1t-36.5 -4v-260q23 -2 43.5 -3.5t38.5 -1.5z" />
    <glyph glyph-name="germandbls" unicode="&#xdf;" horiz-adv-x="642" 
d="M458 288q32 -16 59 -32t46.5 -34.5t30 -40.5t10.5 -49q0 -34 -15 -60.5t-39.5 -45t-57 -28.5t-68.5 -10q-63 0 -101 12t-67 26v84h9q40 -31 78 -49t80 -18q36 0 65 17t29 47q0 14 -3.5 25t-14 21.5t-28.5 22t-46 26.5q-48 24 -80.5 43.5t-51.5 37.5t-27 37.5t-8 44.5
q0 28 9.5 47.5t25 34t35.5 24.5t41 21q22 11 41 28.5t19 52.5q0 13 -9.5 31.5t-30 35.5t-52.5 28.5t-76 11.5q-20 0 -37.5 -4.5t-31 -19.5t-21 -44t-7.5 -78v-438q0 -11 1 -24t2.5 -26.5t3.5 -25.5t5 -20h-102v508q0 57 15 99.5t41 70.5t60 42t73 14q34 0 75 -9.5t77 -30
t60 -52t24 -76.5q0 -25 -11 -44.5t-27 -34.5t-35 -26t-34 -18q-25 -12 -40 -23t-15 -31q0 -15 9.5 -28t26 -25t38.5 -24t47 -24z" />
    <glyph glyph-name="agrave" unicode="&#xe0;" horiz-adv-x="471" 
d="M123 129q-1 -35 19 -54.5t52 -19.5q52 0 108 50q-2 12 -3 34t-1 44l2 83q-47 -18 -80 -33t-54.5 -31t-32 -33.5t-10.5 -39.5zM322 0q-4 9 -7.5 25t-7.5 36q-42 -38 -78 -55.5t-75 -17.5q-57 0 -91.5 33t-33.5 87q1 58 46 94.5t127 68.5q23 9 47.5 17.5t51.5 18.5v22
q0 30 -7 50t-20 32.5t-31.5 17.5t-39.5 5q-34 0 -71 -9t-73 -29v54q35 23 76.5 36t87.5 13q41 0 75 -10t54 -27q17 -14 28.5 -46t12.5 -87l-3 -173q0 -21 2.5 -43.5t6 -43.5t8 -39t9.5 -30h-94zM83 696h115l63 -164h-43z" />
    <glyph glyph-name="aacute" unicode="&#xe1;" horiz-adv-x="471" 
d="M123 129q-1 -35 19 -54.5t52 -19.5q52 0 108 50q-2 12 -3 34t-1 44l2 83q-47 -18 -80 -33t-54.5 -31t-32 -33.5t-10.5 -39.5zM322 0q-4 9 -7.5 25t-7.5 36q-42 -38 -78 -55.5t-75 -17.5q-57 0 -91.5 33t-33.5 87q1 58 46 94.5t127 68.5q23 9 47.5 17.5t51.5 18.5v22
q0 30 -7 50t-20 32.5t-31.5 17.5t-39.5 5q-34 0 -71 -9t-73 -29v54q35 23 76.5 36t87.5 13q41 0 75 -10t54 -27q17 -14 28.5 -46t12.5 -87l-3 -173q0 -21 2.5 -43.5t6 -43.5t8 -39t9.5 -30h-94zM353 696l-133 -164h-45l63 164h115z" />
    <glyph glyph-name="acircumflex" unicode="&#xe2;" horiz-adv-x="471" 
d="M123 129q-1 -35 19 -54.5t52 -19.5q52 0 108 50q-2 12 -3 34t-1 44l2 83q-47 -18 -80 -33t-54.5 -31t-32 -33.5t-10.5 -39.5zM322 0q-4 9 -7.5 25t-7.5 36q-42 -38 -78 -55.5t-75 -17.5q-57 0 -91.5 33t-33.5 87q1 58 46 94.5t127 68.5q23 9 47.5 17.5t51.5 18.5v22
q0 30 -7 50t-20 32.5t-31.5 17.5t-39.5 5q-34 0 -71 -9t-73 -29v54q35 23 76.5 36t87.5 13q41 0 75 -10t54 -27q17 -14 28.5 -46t12.5 -87l-3 -173q0 -21 2.5 -43.5t6 -43.5t8 -39t9.5 -30h-94zM169 697h95l99 -163h-41l-105 98l-105 -98h-39z" />
    <glyph glyph-name="atilde" unicode="&#xe3;" horiz-adv-x="471" 
d="M123 129q-1 -35 19 -54.5t52 -19.5q52 0 108 50q-2 12 -3 34t-1 44l2 83q-47 -18 -80 -33t-54.5 -31t-32 -33.5t-10.5 -39.5zM322 0q-4 9 -7.5 25t-7.5 36q-42 -38 -78 -55.5t-75 -17.5q-57 0 -91.5 33t-33.5 87q1 58 46 94.5t127 68.5q23 9 47.5 17.5t51.5 18.5v22
q0 30 -7 50t-20 32.5t-31.5 17.5t-39.5 5q-34 0 -71 -9t-73 -29v54q35 23 76.5 36t87.5 13q41 0 75 -10t54 -27q17 -14 28.5 -46t12.5 -87l-3 -173q0 -21 2.5 -43.5t6 -43.5t8 -39t9.5 -30h-94zM64 554q3 36 10.5 60.5t19.5 39t27.5 20.5t33.5 6q20 0 44 -10t42 -20
q16 -8 33 -15.5t32 -7.5q3 0 9 2.5t12 8.5t11.5 16.5t8.5 27.5h31q-1 -62 -26.5 -95.5t-63.5 -33.5q-21 0 -42.5 9t-41.5 19l1 -1l-6 4l-11 5q-14 7 -27.5 12.5t-24.5 5.5q-4 0 -9.5 -1.5t-10.5 -6.5t-10 -15.5t-8 -29.5h-34z" />
    <glyph glyph-name="adieresis" unicode="&#xe4;" horiz-adv-x="471" 
d="M123 129q-1 -35 19 -54.5t52 -19.5q52 0 108 50q-2 12 -3 34t-1 44l2 83q-47 -18 -80 -33t-54.5 -31t-32 -33.5t-10.5 -39.5zM322 0q-4 9 -7.5 25t-7.5 36q-42 -38 -78 -55.5t-75 -17.5q-57 0 -91.5 33t-33.5 87q1 58 46 94.5t127 68.5q23 9 47.5 17.5t51.5 18.5v22
q0 30 -7 50t-20 32.5t-31.5 17.5t-39.5 5q-34 0 -71 -9t-73 -29v54q35 23 76.5 36t87.5 13q41 0 75 -10t54 -27q17 -14 28.5 -46t12.5 -87l-3 -173q0 -21 2.5 -43.5t6 -43.5t8 -39t9.5 -30h-94zM304 670q22 0 37.5 -16t15.5 -37q0 -22 -15 -37.5t-37 -15.5t-37.5 16
t-15.5 37q0 22 15.5 37.5t36.5 15.5zM124 670q22 0 37.5 -16t15.5 -37t-15.5 -37t-36.5 -16t-37 16t-16 37q0 22 15.5 37.5t36.5 15.5z" />
    <glyph glyph-name="aring" unicode="&#xe5;" horiz-adv-x="471" 
d="M123 129q-1 -35 19 -54.5t52 -19.5q52 0 108 50q-2 12 -3 34t-1 44l2 83q-47 -18 -80 -33t-54.5 -31t-32 -33.5t-10.5 -39.5zM322 0q-4 9 -7.5 25t-7.5 36q-42 -38 -78 -55.5t-75 -17.5q-57 0 -91.5 33t-33.5 87q1 58 46 94.5t127 68.5q23 9 47.5 17.5t51.5 18.5v22
q0 30 -7 50t-20 32.5t-31.5 17.5t-39.5 5q-34 0 -71 -9t-73 -29v54q35 23 76.5 36t87.5 13q41 0 75 -10t54 -27q17 -14 28.5 -46t12.5 -87l-3 -173q0 -21 2.5 -43.5t6 -43.5t8 -39t9.5 -30h-94zM123 628q0 19 7.5 36t20.5 30t30 20.5t36 7.5t36 -7.5t30 -20.5t20.5 -30
t7.5 -36t-7.5 -36t-20.5 -30t-30 -20.5t-36 -7.5t-36 7.5t-30 20.5t-20.5 30t-7.5 36zM163 628q0 -23 15.5 -38.5t38.5 -15.5t38.5 15.5t15.5 38.5t-15.5 38.5t-38.5 15.5t-38.5 -15.5t-15.5 -38.5z" />
    <glyph glyph-name="ae" unicode="&#xe6;" horiz-adv-x="767" 
d="M560 67q38 0 72.5 10t72.5 41l8 -58q-36 -37 -83.5 -54.5t-103.5 -17.5q-60 0 -107 25t-78 69q-36 -33 -64.5 -52t-51.5 -28t-41.5 -11.5t-34.5 -2.5q-26 0 -47.5 9t-37 24.5t-24.5 37.5t-9 49q0 37 18 64.5t52.5 50t84.5 42.5t113 42v25q0 30 -8 50t-21.5 32.5t-32 17.5
t-40.5 5q-34 0 -66.5 -7.5t-67.5 -26.5l-5 49q37 23 74.5 35t84.5 12q40 0 74 -10t55 -27q6 -5 13 -11.5t10 -12.5q32 29 71.5 45t85.5 16q92 0 147.5 -60.5t56.5 -171.5h-351q1 -47 15.5 -84t39.5 -63t57.5 -39.5t68.5 -13.5zM511 444q-50 0 -86 -34.5t-45 -97.5h248
q-2 68 -35.5 100t-81.5 32zM199 47q20 0 53.5 15t71.5 51q-28 61 -28 129v23q-49 -19 -82 -34t-53.5 -30t-29.5 -32.5t-9 -39.5q0 -35 22 -58.5t55 -23.5z" />
    <glyph glyph-name="ccedilla" unicode="&#xe7;" horiz-adv-x="476" 
d="M243 -11q-44 3 -82 22t-66 52t-43.5 78.5t-15.5 100.5q0 58 18.5 105t51 81t76.5 52.5t95 18.5q54 0 96 -9.5t64 -17.5v-117h-14q-27 42 -61 64.5t-90 22.5q-34 0 -61 -15t-45.5 -40t-28.5 -58t-10 -70q0 -44 13 -79t35.5 -60.5t52.5 -39t65 -13.5q38 0 72 9.5t72 40.5
v-64q-31 -29 -69.5 -44.5t-83.5 -19.5l-20 -40q33 -9 50.5 -31t17.5 -51q0 -20 -8 -38.5t-23.5 -33t-38 -23t-50.5 -8.5q-23 0 -47 3v40q5 0 8 -0.5t7 -1.5q3 -1 7 -1h7q26 0 45 15t19 38q0 17 -13 29.5t-39 12.5h-5z" />
    <glyph glyph-name="egrave" unicode="&#xe8;" horiz-adv-x="508" 
d="M124 267q0 -51 14 -90t38.5 -65.5t57 -40t69.5 -13.5q38 0 72 8t73 33v-59q-71 -52 -180 -52q-54 0 -97 19.5t-73 54t-46 80.5t-16 100q0 59 17.5 106.5t48.5 81t73.5 51.5t92.5 18q99 0 151.5 -60.5t52.5 -171.5h-348zM252 444q-47 0 -82 -37.5t-45 -94.5h243
q-2 64 -32 98t-84 34zM114 696h115l63 -164h-43z" />
    <glyph glyph-name="eacute" unicode="&#xe9;" horiz-adv-x="508" 
d="M124 267q0 -51 14 -90t38.5 -65.5t57 -40t69.5 -13.5q38 0 72 8t73 33v-59q-71 -52 -180 -52q-54 0 -97 19.5t-73 54t-46 80.5t-16 100q0 59 17.5 106.5t48.5 81t73.5 51.5t92.5 18q99 0 151.5 -60.5t52.5 -171.5h-348zM252 444q-47 0 -82 -37.5t-45 -94.5h243
q-2 64 -32 98t-84 34zM392 696l-133 -164h-45l63 164h115z" />
    <glyph glyph-name="ecircumflex" unicode="&#xea;" horiz-adv-x="508" 
d="M124 267q0 -51 14 -90t38.5 -65.5t57 -40t69.5 -13.5q38 0 72 8t73 33v-59q-71 -52 -180 -52q-54 0 -97 19.5t-73 54t-46 80.5t-16 100q0 59 17.5 106.5t48.5 81t73.5 51.5t92.5 18q99 0 151.5 -60.5t52.5 -171.5h-348zM252 444q-47 0 -82 -37.5t-45 -94.5h243
q-2 64 -32 98t-84 34zM204 697h95l99 -163h-41l-105 98l-105 -98h-39z" />
    <glyph glyph-name="edieresis" unicode="&#xeb;" horiz-adv-x="508" 
d="M124 267q0 -51 14 -90t38.5 -65.5t57 -40t69.5 -13.5q38 0 72 8t73 33v-59q-71 -52 -180 -52q-54 0 -97 19.5t-73 54t-46 80.5t-16 100q0 59 17.5 106.5t48.5 81t73.5 51.5t92.5 18q99 0 151.5 -60.5t52.5 -171.5h-348zM252 444q-47 0 -82 -37.5t-45 -94.5h243
q-2 64 -32 98t-84 34zM339 670q22 0 37.5 -16t15.5 -37q0 -22 -15 -37.5t-37 -15.5t-37.5 16t-15.5 37q0 22 15.5 37.5t36.5 15.5zM159 670q22 0 37.5 -16t15.5 -37t-15.5 -37t-36.5 -16t-37 16t-16 37q0 22 15.5 37.5t36.5 15.5z" />
    <glyph glyph-name="igrave" unicode="&#xec;" horiz-adv-x="251" 
d="M171 96q0 -22 3 -50.5t8 -45.5h-102v381q0 66 -11 94l102 24v-403zM14 696h115l63 -164h-43z" />
    <glyph glyph-name="iacute" unicode="&#xed;" horiz-adv-x="251" 
d="M171 96q0 -22 3 -50.5t8 -45.5h-102v381q0 66 -11 94l102 24v-403zM231 696l-133 -164h-45l63 164h115z" />
    <glyph glyph-name="icircumflex" unicode="&#xee;" horiz-adv-x="251" 
d="M171 96q0 -22 3 -50.5t8 -45.5h-102v381q0 66 -11 94l102 24v-403zM78 697h95l99 -163h-41l-105 98l-105 -98h-39z" />
    <glyph glyph-name="idieresis" unicode="&#xef;" horiz-adv-x="251" 
d="M171 96q0 -22 3 -50.5t8 -45.5h-102v381q0 66 -11 94l102 24v-403zM213 670q22 0 37.5 -16t15.5 -37q0 -22 -15 -37.5t-37 -15.5t-37.5 16t-15.5 37q0 22 15.5 37.5t36.5 15.5zM33 670q22 0 37.5 -16t15.5 -37t-15.5 -37t-36.5 -16t-37 16t-16 37q0 22 15.5 37.5
t36.5 15.5z" />
    <glyph glyph-name="eth" unicode="&#xf0;" horiz-adv-x="543" 
d="M273 44q31 0 56.5 13.5t43.5 37t27.5 55t9.5 67.5t-9.5 67t-27.5 54.5t-43.5 37t-56.5 13.5q-32 0 -57 -13.5t-43 -37t-27.5 -54.5t-9.5 -67t9.5 -67.5t27.5 -55t43 -37t57 -13.5zM337 613q35 -36 65 -77.5t52 -85.5t34.5 -90t12.5 -92q0 -63 -14.5 -115t-44.5 -88.5
t-75.5 -56.5t-106.5 -20q-47 0 -87.5 18t-70.5 49t-47.5 73t-17.5 90t17 90t46.5 72.5t69.5 48t85 17.5q29 0 61 -8t60 -30l8 5q-17 48 -42.5 90.5t-57.5 78.5l-136 -78l-20 35l128 73q-53 51 -117 84l38 38q67 -34 131 -92l108 63l20 -35z" />
    <glyph glyph-name="ntilde" unicode="&#xf1;" horiz-adv-x="556" 
d="M387 0v294q0 74 -20.5 105.5t-69.5 31.5q-71 0 -128 -71v-264q0 -22 2.5 -50.5t7.5 -45.5h-102v380q0 32 -3.5 56t-8.5 38l104 24v-89q79 90 162 90q75 0 111.5 -46.5t36.5 -145.5v-211q0 -22 3 -50.5t7 -45.5h-102zM112 554q3 36 10.5 60.5t19.5 39t27.5 20.5t33.5 6
q20 0 44 -10t42 -20q16 -8 33 -15.5t32 -7.5q3 0 9 2.5t12 8.5t11.5 16.5t8.5 27.5h31q-1 -62 -26.5 -95.5t-63.5 -33.5q-21 0 -42.5 9t-41.5 19l1 -1l-6 4l-11 5q-14 7 -27.5 12.5t-24.5 5.5q-4 0 -9.5 -1.5t-10.5 -6.5t-10 -15.5t-8 -29.5h-34z" />
    <glyph glyph-name="ograve" unicode="&#xf2;" horiz-adv-x="578" 
d="M292 499q53 0 98.5 -20.5t78.5 -55t52 -80.5t19 -98q0 -59 -21.5 -106.5t-57.5 -81t-81.5 -51.5t-93.5 -18q-53 0 -99 20t-79.5 54.5t-52.5 80.5t-19 98q0 60 22 107.5t58 81t82 51.5t94 18zM298 45q64 0 104 47.5t40 135.5q0 44 -12 82.5t-33.5 67.5t-51.5 46t-66 17
q-63 0 -104 -47t-41 -135q0 -44 12 -83t33.5 -68t52 -46t66.5 -17zM148 696h115l63 -164h-43z" />
    <glyph glyph-name="oacute" unicode="&#xf3;" horiz-adv-x="578" 
d="M292 499q53 0 98.5 -20.5t78.5 -55t52 -80.5t19 -98q0 -59 -21.5 -106.5t-57.5 -81t-81.5 -51.5t-93.5 -18q-53 0 -99 20t-79.5 54.5t-52.5 80.5t-19 98q0 60 22 107.5t58 81t82 51.5t94 18zM298 45q64 0 104 47.5t40 135.5q0 44 -12 82.5t-33.5 67.5t-51.5 46t-66 17
q-63 0 -104 -47t-41 -135q0 -44 12 -83t33.5 -68t52 -46t66.5 -17zM426 696l-133 -164h-45l63 164h115z" />
    <glyph glyph-name="ocircumflex" unicode="&#xf4;" horiz-adv-x="578" 
d="M292 499q53 0 98.5 -20.5t78.5 -55t52 -80.5t19 -98q0 -59 -21.5 -106.5t-57.5 -81t-81.5 -51.5t-93.5 -18q-53 0 -99 20t-79.5 54.5t-52.5 80.5t-19 98q0 60 22 107.5t58 81t82 51.5t94 18zM298 45q64 0 104 47.5t40 135.5q0 44 -12 82.5t-33.5 67.5t-51.5 46t-66 17
q-63 0 -104 -47t-41 -135q0 -44 12 -83t33.5 -68t52 -46t66.5 -17zM238 697h95l99 -163h-41l-105 98l-105 -98h-39z" />
    <glyph glyph-name="otilde" unicode="&#xf5;" horiz-adv-x="578" 
d="M292 499q53 0 98.5 -20.5t78.5 -55t52 -80.5t19 -98q0 -59 -21.5 -106.5t-57.5 -81t-81.5 -51.5t-93.5 -18q-53 0 -99 20t-79.5 54.5t-52.5 80.5t-19 98q0 60 22 107.5t58 81t82 51.5t94 18zM298 45q64 0 104 47.5t40 135.5q0 44 -12 82.5t-33.5 67.5t-51.5 46t-66 17
q-63 0 -104 -47t-41 -135q0 -44 12 -83t33.5 -68t52 -46t66.5 -17zM129 554q3 36 10.5 60.5t19.5 39t27.5 20.5t33.5 6q20 0 44 -10t42 -20q16 -8 33 -15.5t32 -7.5q3 0 9 2.5t12 8.5t11.5 16.5t8.5 27.5h31q-1 -62 -26.5 -95.5t-63.5 -33.5q-21 0 -42.5 9t-41.5 19l1 -1
l-6 4l-11 5q-14 7 -27.5 12.5t-24.5 5.5q-4 0 -9.5 -1.5t-10.5 -6.5t-10 -15.5t-8 -29.5h-34z" />
    <glyph glyph-name="odieresis" unicode="&#xf6;" horiz-adv-x="578" 
d="M292 499q53 0 98.5 -20.5t78.5 -55t52 -80.5t19 -98q0 -59 -21.5 -106.5t-57.5 -81t-81.5 -51.5t-93.5 -18q-53 0 -99 20t-79.5 54.5t-52.5 80.5t-19 98q0 60 22 107.5t58 81t82 51.5t94 18zM298 45q64 0 104 47.5t40 135.5q0 44 -12 82.5t-33.5 67.5t-51.5 46t-66 17
q-63 0 -104 -47t-41 -135q0 -44 12 -83t33.5 -68t52 -46t66.5 -17zM373 670q22 0 37.5 -16t15.5 -37q0 -22 -15 -37.5t-37 -15.5t-37.5 16t-15.5 37q0 22 15.5 37.5t36.5 15.5zM193 670q22 0 37.5 -16t15.5 -37t-15.5 -37t-36.5 -16t-37 16t-16 37q0 22 15.5 37.5t36.5 15.5
z" />
    <glyph glyph-name="divide" unicode="&#xf7;" horiz-adv-x="518" 
d="M489 373v-58h-460v58h460zM259 540q17 0 29.5 -12.5t12.5 -29.5q0 -18 -12.5 -30t-29.5 -12t-29.5 12t-12.5 30q0 17 12.5 29.5t29.5 12.5zM259 232q17 0 29.5 -12.5t12.5 -29.5t-12.5 -29.5t-29.5 -12.5t-29.5 12.5t-12.5 29.5t12.5 29.5t29.5 12.5z" />
    <glyph glyph-name="oslash" unicode="&#xf8;" horiz-adv-x="576" 
d="M483 407q26 -35 40.5 -76t14.5 -86q0 -59 -21.5 -106.5t-57 -81t-81 -51.5t-93.5 -18t-90 17t-75 46l-64 -62l-27 27l65 64q-28 34 -43 75t-15 86q0 60 22 107.5t57.5 81t81.5 51.5t94 18t90 -17t75 -47l64 63l28 -27zM132 259q0 -32 7 -61t19 -55l240 235q-23 29 -53 46
t-67 17q-64 0 -105 -47t-41 -135zM442 228q0 62 -24 116l-240 -236q23 -29 53 -46t66 -17q65 0 105 47.5t40 135.5z" />
    <glyph glyph-name="ugrave" unicode="&#xf9;" horiz-adv-x="553" 
d="M384 0v65q-44 -40 -81 -58.5t-77 -18.5q-75 0 -113.5 45.5t-38.5 145.5v206q0 32 -3.5 54t-8.5 36l104 24v-306q0 -74 22.5 -106t76.5 -32q28 0 58 15t61 43v268q0 33 -4 56.5t-9 37.5l105 24v-403q0 -22 3 -50.5t7 -45.5h-102zM132 696h115l63 -164h-43z" />
    <glyph glyph-name="uacute" unicode="&#xfa;" horiz-adv-x="553" 
d="M384 0v65q-44 -40 -81 -58.5t-77 -18.5q-75 0 -113.5 45.5t-38.5 145.5v206q0 32 -3.5 54t-8.5 36l104 24v-306q0 -74 22.5 -106t76.5 -32q28 0 58 15t61 43v268q0 33 -4 56.5t-9 37.5l105 24v-403q0 -22 3 -50.5t7 -45.5h-102zM409 696l-133 -164h-45l63 164h115z" />
    <glyph glyph-name="ucircumflex" unicode="&#xfb;" horiz-adv-x="553" 
d="M384 0v65q-44 -40 -81 -58.5t-77 -18.5q-75 0 -113.5 45.5t-38.5 145.5v206q0 32 -3.5 54t-8.5 36l104 24v-306q0 -74 22.5 -106t76.5 -32q28 0 58 15t61 43v268q0 33 -4 56.5t-9 37.5l105 24v-403q0 -22 3 -50.5t7 -45.5h-102zM221 697h95l99 -163h-41l-105 98l-105 -98
h-39z" />
    <glyph glyph-name="udieresis" unicode="&#xfc;" horiz-adv-x="553" 
d="M384 0v65q-44 -40 -81 -58.5t-77 -18.5q-75 0 -113.5 45.5t-38.5 145.5v206q0 32 -3.5 54t-8.5 36l104 24v-306q0 -74 22.5 -106t76.5 -32q28 0 58 15t61 43v268q0 33 -4 56.5t-9 37.5l105 24v-403q0 -22 3 -50.5t7 -45.5h-102zM356 670q22 0 37.5 -16t15.5 -37
q0 -22 -15 -37.5t-37 -15.5t-37.5 16t-15.5 37q0 22 15.5 37.5t36.5 15.5zM176 670q22 0 37.5 -16t15.5 -37t-15.5 -37t-36.5 -16t-37 16t-16 37q0 22 15.5 37.5t36.5 15.5z" />
    <glyph glyph-name="yacute" unicode="&#xfd;" horiz-adv-x="489" 
d="M481 487q-50 -112 -91 -208q-18 -41 -35.5 -82t-33.5 -77t-28 -64t-18 -43q-30 -72 -58 -120t-55 -76.5t-55 -40.5t-59 -12l-15 79q37 1 63 14.5t46.5 38t38 60.5t37.5 81l-156 355l-11.5 23t-14 26t-15 25t-13.5 21h108l150 -340l102 243q10 23 19.5 51.5t11.5 45.5h82z
M381 696l-133 -164h-45l63 164h115z" />
    <glyph glyph-name="thorn" unicode="&#xfe;" horiz-adv-x="554" 
d="M319 499q45 0 82 -20.5t62.5 -55t39.5 -79t14 -93.5q0 -54 -16.5 -101.5t-47 -83.5t-72.5 -57t-93 -21q-28 0 -57.5 6.5t-66.5 26.5v-150q0 -22 3 -50t8 -45h-101v840q0 33 -3.5 56.5t-8.5 37.5l102 24v-304l26 17q25 17 56.5 34.5t72.5 17.5zM276 38q34 0 61.5 14
t46.5 39.5t29 60t10 75.5q0 43 -10.5 79.5t-29.5 62.5t-45.5 41t-58.5 15q-23 0 -49 -11t-66 -34v-308q23 -14 50 -24t62 -10z" />
    <glyph glyph-name="ydieresis" unicode="&#xff;" horiz-adv-x="489" 
d="M481 487q-50 -112 -91 -208q-18 -41 -35.5 -82t-33.5 -77t-28 -64t-18 -43q-30 -72 -58 -120t-55 -76.5t-55 -40.5t-59 -12l-15 79q37 1 63 14.5t46.5 38t38 60.5t37.5 81l-156 355l-11.5 23t-14 26t-15 25t-13.5 21h108l150 -340l102 243q10 23 19.5 51.5t11.5 45.5h82z
M328 670q22 0 37.5 -16t15.5 -37q0 -22 -15 -37.5t-37 -15.5t-37.5 16t-15.5 37q0 22 15.5 37.5t36.5 15.5zM148 670q22 0 37.5 -16t15.5 -37t-15.5 -37t-36.5 -16t-37 16t-16 37q0 22 15.5 37.5t36.5 15.5z" />
    <glyph glyph-name="dotlessi" unicode="&#x131;" horiz-adv-x="251" 
d="M171 96q0 -22 3 -50.5t8 -45.5h-102v381q0 66 -11 94l102 24v-403z" />
    <glyph glyph-name="OE" unicode="&#x152;" horiz-adv-x="992" 
d="M860 60q10 0 22.5 0.5t25 2t24 3.5t19.5 4q-5 -18 -7.5 -35t-6.5 -35h-433q-25 -6 -55 -9t-57 -3q-77 0 -141 27t-110 75t-72 113.5t-26 142.5q0 75 26 140.5t73.5 114t113 76.5t144.5 28q24 0 52 -3t51 -9h409q5 -18 7 -35t7 -35q-17 5 -43.5 7.5t-46.5 2.5h-233v-248
h191q10 0 23 0.5t25.5 2t24 3.5t19.5 5v-80q-8 2 -19.5 4t-24 3.5t-25.5 2t-23 0.5h-191v-266h257zM149 347q0 -66 16.5 -121t48 -94.5t77.5 -61t104 -21.5q27 0 57.5 4t54.5 14v557q-23 11 -53 16t-58 5q-59 0 -105 -21.5t-77.5 -60.5t-48 -94t-16.5 -122z" />
    <glyph glyph-name="oe" unicode="&#x153;" horiz-adv-x="913" 
d="M707 67q38 0 72 9.5t72 40.5q2 -15 4 -28.5t4 -28.5q-36 -37 -83 -54.5t-103 -17.5q-63 0 -110 26.5t-78 71.5q-38 -47 -90.5 -72.5t-109.5 -25.5q-53 0 -98.5 20t-79 54.5t-52.5 80.5t-19 98q0 60 22 107.5t57.5 81t81.5 51.5t94 18q59 0 109 -26t85 -71q32 47 80 72
t108 25q45 0 82.5 -15.5t64 -45.5t41.5 -73t15 -98h-350q1 -47 15.5 -84t39.5 -63t57.5 -39.5t68.5 -13.5zM657 444q-50 0 -86 -34.5t-44 -97.5h247q-2 68 -35 100t-82 32zM297 45q65 0 105 47.5t40 135.5q0 44 -12 82.5t-33.5 67.5t-52 46t-66.5 17q-64 0 -105 -47
t-41 -135q0 -44 12 -83t33.5 -68t52 -46t67.5 -17z" />
    <glyph glyph-name="Scaron" unicode="&#x160;" horiz-adv-x="531" 
d="M340 373q75 -42 109.5 -89.5t34.5 -107.5q0 -40 -15.5 -74t-44 -59.5t-68 -40t-86.5 -14.5q-35 0 -63.5 3t-53.5 9t-48 14t-48 18l-11 110h12q16 -17 36.5 -33.5t46.5 -29.5t57 -21.5t67 -8.5q29 0 52.5 8t40 22.5t25.5 33t9 39.5q0 16 -4.5 31.5t-15.5 31.5t-31 32
t-51 34l-83 47q-75 42 -115 86t-40 107q0 37 14.5 70.5t40.5 59t63.5 40t82.5 14.5q60 0 105.5 -12.5t92.5 -35.5l11 -109h-12q-20 22 -39.5 40t-42 30.5t-49 19t-61.5 6.5q-53 0 -83.5 -28.5t-30.5 -67.5t27 -66.5t89 -62.5zM119 903h39l105 -98l105 98h41
q-25 -42 -49.5 -82t-49.5 -81h-95z" />
    <glyph glyph-name="scaron" unicode="&#x161;" horiz-adv-x="423" 
d="M385 135q0 -34 -15 -61t-40 -46t-58.5 -29.5t-69.5 -10.5q-51 0 -89 11t-66 23v91h11q38 -34 77 -52.5t76 -18.5q35 0 60 19.5t25 48.5q0 26 -19.5 46.5t-68.5 44.5q-47 23 -77 42t-47 37t-23.5 37.5t-6.5 43.5q0 29 12.5 54.5t34.5 44t52 29t65 10.5q47 0 82.5 -12
t64.5 -23v-98h-11q-35 38 -67.5 58t-66.5 20q-39 0 -61.5 -18t-22.5 -41q0 -29 30 -51.5t78 -45.5q30 -15 56 -31t45 -34t29.5 -39.5t10.5 -48.5zM66 697h39l105 -98l105 98h41q-25 -42 -49.5 -82t-49.5 -81h-95z" />
    <glyph glyph-name="Ydieresis" unicode="&#x178;" horiz-adv-x="665" 
d="M389 91q0 -10 0.5 -22.5t2 -25t3.5 -24t4 -19.5h-106v326l-200 278q-14 20 -35.5 46.5t-38.5 42.5h123l215 -300l146 207q7 10 15.5 23t16 26t13.5 24.5t9 19.5h89l-257 -362v-240zM428 876q22 0 37.5 -16t15.5 -37q0 -22 -15 -37.5t-37 -15.5t-37.5 16t-15.5 37
q0 22 15.5 37.5t36.5 15.5zM248 876q22 0 37.5 -16t15.5 -37t-15.5 -37t-36.5 -16t-37 16t-16 37q0 22 15.5 37.5t36.5 15.5z" />
    <glyph glyph-name="Zcaron" unicode="&#x17d;" horiz-adv-x="628" 
d="M519 60q21 0 47.5 2.5t42.5 7.5l-7 -70h-583v28l441 605h-319q-20 0 -46.5 -2.5t-42.5 -7.5l7 70h539v-26l-440 -607h361zM183 903h39l105 -98l105 98h41q-25 -42 -49.5 -82t-49.5 -81h-95z" />
    <glyph glyph-name="zcaron" unicode="&#x17e;" horiz-adv-x="478" 
d="M153 429q-22 0 -52 -3t-47 -8v69h392v-18l-290 -411h191q23 0 52.5 3t46.5 8v-69h-419v24l286 405h-160zM107 697h39l105 -98l105 98h41q-25 -42 -49.5 -82t-49.5 -81h-95z" />
    <glyph glyph-name="florin" unicode="&#x192;" horiz-adv-x="355" 
d="M382 734q30 0 60 -8l-18 -101h-10q-15 24 -32 33.5t-39 9.5q-15 0 -29 -4t-26 -17.5t-22 -38t-17 -65.5l-22 -125h102l-9 -49h-102l-65 -370q-10 -57 -33 -101t-54 -74t-68.5 -45t-76.5 -15q-30 0 -59 8l17 101h10q16 -24 33 -33.5t39 -9.5q15 0 29 4t26 17.5t22 38
t17 65.5l73 414h-103l9 49h103l14 81q10 57 32.5 101t53.5 74t68.5 45t76.5 15z" />
    <glyph glyph-name="circumflex" unicode="&#x2c6;" horiz-adv-x="327" 
d="M115 700h95l99 -163h-41l-105 98l-105 -98h-39z" />
    <glyph glyph-name="tilde" unicode="&#x2dc;" horiz-adv-x="327" 
d="M6 557q3 36 10.5 60.5t19.5 39t27.5 20.5t33.5 6q20 0 44 -10t42 -20q16 -8 33 -15.5t32 -7.5q3 0 9 2.5t12 8.5t11.5 16.5t8.5 27.5h31q-1 -62 -26.5 -95.5t-63.5 -33.5q-21 0 -42.5 9t-41.5 19l1 -1l-6 4l-11 5q-14 7 -27.5 12.5t-24.5 5.5q-4 0 -9.5 -1.5t-10.5 -6.5
t-10 -15.5t-8 -29.5h-34z" />
    <glyph glyph-name="endash" unicode="&#x2013;" horiz-adv-x="498" 
d="M504 221h-510v44h510v-44z" />
    <glyph glyph-name="emdash" unicode="&#x2014;" horiz-adv-x="999" 
d="M1005 221h-1011v44h1011v-44z" />
    <glyph glyph-name="quoteleft" unicode="&#x2018;" horiz-adv-x="218" 
d="M176 726q-35 -20 -56.5 -44t-21.5 -44q0 -17 17 -34t45 -27q6 -4 11 -10.5t5 -14.5q0 -11 -5 -24t-13 -24t-18 -18t-21 -7q-31 0 -54 28t-23 73q0 54 34 97t100 65v-16z" />
    <glyph glyph-name="quoteright" unicode="&#x2019;" horiz-adv-x="218" 
d="M42 487q35 20 56.5 44t21.5 44q0 17 -17 34t-45 27q-6 4 -11 10.5t-5 14.5q0 11 5 24t13 24t18 18t21 7q31 0 54 -28t23 -73q0 -54 -34 -97t-100 -65v16z" />
    <glyph glyph-name="quotesinglbase" unicode="&#x201a;" horiz-adv-x="228" 
d="M47 -139q35 20 56.5 44t21.5 44q0 17 -17 34t-45 27q-6 4 -11 10.5t-5 14.5q0 11 5 24t13 24t18 18t21 7q31 0 54 -28t23 -73q0 -54 -34 -97t-100 -65v16z" />
    <glyph glyph-name="quotedblleft" unicode="&#x201c;" horiz-adv-x="412" 
d="M176 726q-35 -20 -56.5 -44t-21.5 -44q0 -17 17 -34t45 -27q6 -4 11 -10.5t5 -14.5q0 -11 -5 -24t-13 -24t-18 -18t-21 -7q-31 0 -54 28t-23 73q0 54 34 97t100 65v-16zM370 726q-35 -20 -56.5 -44t-21.5 -44q0 -17 17 -34t45 -27q6 -4 11 -10.5t5 -14.5q0 -11 -5 -24
t-13 -24t-18 -18t-21 -7q-31 0 -54 28t-23 73q0 54 34 97t100 65v-16z" />
    <glyph glyph-name="quotedblright" unicode="&#x201d;" horiz-adv-x="412" 
d="M236 487q35 20 56.5 44t21.5 44q0 17 -17 34t-45 27q-6 4 -11 10.5t-5 14.5q0 11 5 24t13 24t18 18t21 7q31 0 54 -28t23 -73q0 -54 -34 -97t-100 -65v16zM42 487q35 20 56.5 44t21.5 44q0 17 -17 34t-45 27q-6 4 -11 10.5t-5 14.5q0 11 5 24t13 24t18 18t21 7
q31 0 54 -28t23 -73q0 -54 -34 -97t-100 -65v16z" />
    <glyph glyph-name="quotedblbase" unicode="&#x201e;" horiz-adv-x="422" 
d="M241 -139q35 20 56.5 44t21.5 44q0 17 -17 34t-45 27q-6 4 -11 10.5t-5 14.5q0 11 5 24t13 24t18 18t21 7q31 0 54 -28t23 -73q0 -54 -34 -97t-100 -65v16zM47 -139q35 20 56.5 44t21.5 44q0 17 -17 34t-45 27q-6 4 -11 10.5t-5 14.5q0 11 5 24t13 24t18 18t21 7
q31 0 54 -28t23 -73q0 -54 -34 -97t-100 -65v16z" />
    <glyph glyph-name="dagger" unicode="&#x2020;" horiz-adv-x="491" 
d="M403 510q15 0 32 -1t28 -4v-75q-11 -3 -28 -4.5t-32 -1.5q-13 0 -32.5 3.5t-40.5 8.5t-40.5 10.5t-32.5 9.5q5 -21 11 -45.5t11 -47.5t8 -44t3 -35q0 -7 -1 -45t-2.5 -92t-3.5 -116.5t-4 -116.5t-3.5 -93t-2.5 -46h-55q-1 4 -2.5 42t-3.5 92.5t-4 117t-3.5 118t-2.5 94
t-1 45.5q0 16 4 39.5t9 48t11 47.5t10 37q-19 -6 -40 -11.5t-40.5 -10t-36.5 -7.5t-29 -3q-16 0 -33 1.5t-28 4.5v75q11 3 28 4t33 1q13 0 32.5 -3.5t40.5 -8.5t40.5 -10.5t32.5 -9.5q-4 14 -10 37t-11 48t-9 48.5t-4 39.5q0 18 1.5 37.5t4.5 33.5h76q4 -14 5.5 -33.5
t1.5 -37.5q0 -15 -3.5 -36.5t-8 -45t-10 -47t-9.5 -43.5q12 4 31 9t39.5 10t40 8.5t33.5 3.5z" />
    <glyph glyph-name="daggerdbl" unicode="&#x2021;" horiz-adv-x="491" 
d="M463 430q-12 -3 -29 -4.5t-31 -1.5t-33.5 3.5t-40.5 9t-40.5 11t-32.5 9.5q4 -14 10 -37t11 -48t9 -48.5t4 -39.5v-82q0 -16 -4 -39.5t-9 -48.5t-11 -48t-10 -37q13 4 32.5 9.5t40.5 10.5t40.5 8.5t33.5 3.5t31.5 -1.5t28.5 -4.5v-74q-11 -3 -28.5 -4.5t-31.5 -1.5
q-13 0 -30.5 3t-37 7.5t-40 9.5t-38.5 10q4 -14 9.5 -36t10.5 -46.5t9 -48t4 -39.5q0 -18 -2 -38t-5 -33h-76q-3 13 -4.5 33t-1.5 38q0 16 3.5 39.5t9 48t11 46.5t9.5 36q-18 -5 -38.5 -10t-40 -9.5t-37 -7.5t-30.5 -3q-15 0 -32 1.5t-28 4.5v74q11 4 27.5 5t32.5 1
q13 0 33 -3.5t41 -8.5t40.5 -10.5t32.5 -9.5q-5 14 -10.5 37t-11 47.5t-9 48.5t-3.5 40v82q0 16 3.5 40t9 48.5t11 47.5t10.5 37q-13 -4 -32.5 -9.5t-40.5 -11t-41 -9t-33 -3.5q-15 0 -32 1.5t-28 4.5v75q11 3 28 4.5t32 1.5q13 0 33 -3.5t41 -9t40.5 -11t32.5 -9.5
q-5 14 -10.5 37t-11 47.5t-9 48.5t-3.5 40q0 18 1.5 37.5t4.5 33.5h76q3 -14 5 -33.5t2 -37.5q0 -16 -4 -39.5t-9 -48.5t-11 -48t-10 -37q13 4 32.5 9.5t40.5 11t40.5 9t33.5 3.5t31.5 -1.5t28.5 -4.5v-75z" />
    <glyph glyph-name="bullet" unicode="&#x2022;" horiz-adv-x="340" 
d="M40 332q0 27 10.5 51t28.5 41.5t41.5 28t49.5 10.5q27 0 50.5 -10.5t41 -28t28 -41.5t10.5 -51q0 -26 -10.5 -49.5t-28 -41.5t-41 -28.5t-50.5 -10.5q-26 0 -49.5 10.5t-41.5 28t-28.5 41t-10.5 50.5z" />
    <glyph glyph-name="ellipsis" unicode="&#x2026;" horiz-adv-x="1000" 
d="M165 110q25 0 44 -18t19 -43t-19 -43t-43 -18q-26 0 -43.5 18t-17.5 43t17.5 43t42.5 18zM499 110q25 0 44 -18t19 -43t-19 -43t-43 -18q-26 0 -43.5 18t-17.5 43t17.5 43t42.5 18zM832 110q25 0 44 -18t19 -43t-19 -43t-43 -18q-26 0 -43.5 18t-17.5 43t17.5 43t42.5 18
z" />
    <glyph glyph-name="perthousand" unicode="&#x2030;" horiz-adv-x="1118" 
d="M315 492q0 -46 -11 -84t-31 -65t-47 -42t-59 -15t-58.5 15t-46.5 42t-31 65t-11 84q0 48 11.5 86.5t31.5 65.5t46.5 41.5t57.5 14.5t58 -14.5t47 -41.5t31.5 -65.5t11.5 -86.5zM235 488q0 33 -3.5 64t-11 54.5t-21 37.5t-32.5 14t-32 -14t-20.5 -37.5t-11 -54.5t-3.5 -64
q0 -71 16 -116.5t51 -45.5t51.5 45t16.5 117zM627 693l-444 -693h-42l444 693h42zM736 199q0 -46 -11 -84t-31 -65t-47 -42t-59 -15t-58.5 15t-46.5 42t-31 65t-11 84q0 48 11.5 86.5t31.5 65.5t46.5 41.5t57.5 14.5t58 -14.5t47 -41.5t31.5 -65.5t11.5 -86.5zM656 195
q0 33 -3.5 64t-11 54.5t-21 37.5t-32.5 14t-32 -14t-20.5 -37.5t-11 -54.5t-3.5 -64q0 -71 16 -116.5t51 -45.5t51.5 45t16.5 117zM1088 199q0 -46 -11 -84t-31 -65t-47 -42t-59 -15t-58.5 15t-46.5 42t-31 65t-11 84q0 48 11.5 86.5t31.5 65.5t46.5 41.5t57.5 14.5
t58 -14.5t47 -41.5t31.5 -65.5t11.5 -86.5zM1008 195q0 33 -3.5 64t-11 54.5t-21 37.5t-32.5 14t-32 -14t-20.5 -37.5t-11 -54.5t-3.5 -64q0 -71 16 -116.5t51 -45.5t51.5 45t16.5 117z" />
    <glyph glyph-name="guilsinglleft" unicode="&#x2039;" horiz-adv-x="264" 
d="M240 0h-51l-165 225l165 224h51l-132 -224z" />
    <glyph glyph-name="guilsinglright" unicode="&#x203a;" horiz-adv-x="267" 
d="M24 449h51l168 -225l-168 -224h-50l131 224z" />
    <glyph glyph-name="Euro" unicode="&#x20ac;" horiz-adv-x="620" 
d="M381 -12q-63 0 -115 21.5t-91 58t-65 85.5t-37 104h-74v44h68q-1 10 -1.5 19.5t-0.5 19.5q0 27 3 53h-69v44h76q14 63 45 113t72.5 84.5t91.5 52.5t103 18q37 0 69.5 -5.5t59 -13t46.5 -15.5t33 -14l9 -106h-9q-38 39 -88 66.5t-115 27.5q-88 0 -143 -55.5t-73 -152.5
h342v-44h-348q-3 -26 -3 -54q0 -10 0.5 -19.5t1.5 -18.5h349v-44h-344q19 -96 76.5 -148.5t141.5 -52.5q58 0 110.5 23t96.5 65l25 -43q-48 -52 -107.5 -82.5t-135.5 -30.5z" />
    <glyph glyph-name="trademark" unicode="&#x2122;" horiz-adv-x="958" 
d="M253 329q0 -11 1.5 -28.5t4.5 -28.5h-82v380h-83q-13 0 -31.5 -2.5t-33.5 -7.5q3 14 6.5 25.5t6.5 25.5h347q2 -13 6 -25.5t7 -25.5q-16 5 -35 7.5t-31 2.5h-83v-323zM813 590q-33 -56 -68.5 -117.5t-67.5 -117.5h-23l-135 235v-261q0 -11 2 -28.5t4 -28.5h-64v366
q0 36 -7 55h87l140 -235l61 109v-1q18 31 36.5 64t36.5 63h77q0 -3 -1 -5q-2 -8 -3 -18.5t-1 -22.5v-318q0 -11 1.5 -28.5t5.5 -28.5h-81v318z" />
    </font>
</defs>
</svg>
